<?xml version="1.0" encoding="UTF-8" standalone="no"?>
<svg
   xmlns:dc="http://purl.org/dc/elements/1.1/"
   xmlns:cc="http://creativecommons.org/ns#"
   xmlns:rdf="http://www.w3.org/1999/02/22-rdf-syntax-ns#"
   xmlns:svg="http://www.w3.org/2000/svg"
   xmlns="http://www.w3.org/2000/svg"
   xmlns:xlink="http://www.w3.org/1999/xlink"
   xmlns:sodipodi="http://sodipodi.sourceforge.net/DTD/sodipodi-0.dtd"
   xmlns:inkscape="http://www.inkscape.org/namespaces/inkscape"
   width="210mm"
   height="297mm"
   viewBox="0 0 210 297"
   version="1.1"
   id="svg8"
   inkscape:version="1.0 (4035a4fb49, 2020-05-01)"
   sodipodi:docname="ev_rotated_classic_graph.svg">
  <defs
     id="defs2">
    <rect
       id="rect6354"
       height="15.772582"
       width="31.234393"
       y="20.913003"
       x="78.437996" />
    <inkscape:path-effect
       lpeversion="1"
       is_visible="true"
       id="path-effect4584"
       effect="spiro" />
    <inkscape:path-effect
       effect="spiro"
       id="path-effect4582"
       is_visible="true"
       lpeversion="1" />
    <marker
       inkscape:stockid="Arrow2Lend"
       orient="auto"
       refY="0.0"
       refX="0.0"
       id="marker3216"
       style="overflow:visible;"
       inkscape:isstock="true">
      <path
         id="path3214"
         style="fill-rule:evenodd;stroke-width:0.625;stroke-linejoin:round;stroke:#000000;stroke-opacity:1;fill:#000000;fill-opacity:1"
         d="M 8.7185878,4.0337352 L -2.2072895,0.016013256 L 8.7185884,-4.0017078 C 6.9730900,-1.6296469 6.9831476,1.6157441 8.7185878,4.0337352 z "
         transform="scale(1.1) rotate(180) translate(1,0)" />
    </marker>
    <inkscape:path-effect
       lpeversion="1"
       is_visible="true"
       id="path-effect2229"
       effect="spiro" />
    <inkscape:path-effect
       effect="spiro"
       id="path-effect2227"
       is_visible="true"
       lpeversion="1" />
    <marker
       inkscape:stockid="Arrow2Lend"
       orient="auto"
       refY="0.0"
       refX="0.0"
       id="marker1863"
       style="overflow:visible;"
       inkscape:isstock="true">
      <path
         id="path1861"
         style="fill-rule:evenodd;stroke-width:0.625;stroke-linejoin:round;stroke:#000000;stroke-opacity:1;fill:#000000;fill-opacity:1"
         d="M 8.7185878,4.0337352 L -2.2072895,0.016013256 L 8.7185884,-4.0017078 C 6.9730900,-1.6296469 6.9831476,1.6157441 8.7185878,4.0337352 z "
         transform="scale(1.1) rotate(180) translate(1,0)" />
    </marker>
    <marker
       inkscape:stockid="Arrow1Lstart"
       orient="auto"
       refY="0.0"
       refX="0.0"
       id="marker1781"
       style="overflow:visible"
       inkscape:isstock="true">
      <path
         id="path1779"
         d="M 0.0,0.0 L 5.0,-5.0 L -12.5,0.0 L 5.0,5.0 L 0.0,0.0 z "
         style="fill-rule:evenodd;stroke:#000000;stroke-width:1pt;stroke-opacity:1;fill:#000000;fill-opacity:1"
         transform="scale(0.8) translate(12.5,0)" />
    </marker>
    <marker
       inkscape:collect="always"
       inkscape:isstock="true"
       style="overflow:visible;"
       id="Arrow2Lend"
       refX="0.0"
       refY="0.0"
       orient="auto"
       inkscape:stockid="Arrow2Lend">
      <path
         transform="scale(1.1) rotate(180) translate(1,0)"
         d="M 8.7185878,4.0337352 L -2.2072895,0.016013256 L 8.7185884,-4.0017078 C 6.9730900,-1.6296469 6.9831476,1.6157441 8.7185878,4.0337352 z "
         style="fill-rule:evenodd;stroke-width:0.625;stroke-linejoin:round;stroke:#000000;stroke-opacity:1;fill:#000000;fill-opacity:1"
         id="path1095" />
    </marker>
    <marker
       inkscape:stockid="Arrow1Lend"
       orient="auto"
       refY="0.0"
       refX="0.0"
       id="marker1402"
       style="overflow:visible;"
       inkscape:isstock="true">
      <path
         id="path1400"
         d="M 0.0,0.0 L 5.0,-5.0 L -12.5,0.0 L 5.0,5.0 L 0.0,0.0 z "
         style="fill-rule:evenodd;stroke:#000000;stroke-width:1pt;stroke-opacity:1;fill:#000000;fill-opacity:1"
         transform="scale(0.8) rotate(180) translate(12.5,0)" />
    </marker>
    <marker
       inkscape:isstock="true"
       style="overflow:visible;"
       id="marker1374"
       refX="0.0"
       refY="0.0"
       orient="auto"
       inkscape:stockid="Arrow1Lend">
      <path
         transform="scale(0.8) rotate(180) translate(12.5,0)"
         style="fill-rule:evenodd;stroke:#000000;stroke-width:1pt;stroke-opacity:1;fill:#000000;fill-opacity:1"
         d="M 0.0,0.0 L 5.0,-5.0 L -12.5,0.0 L 5.0,5.0 L 0.0,0.0 z "
         id="path1372" />
    </marker>
    <marker
       inkscape:isstock="true"
       style="overflow:visible;"
       id="marker1352"
       refX="0.0"
       refY="0.0"
       orient="auto"
       inkscape:stockid="Arrow1Lend">
      <path
         transform="scale(0.8) rotate(180) translate(12.5,0)"
         style="fill-rule:evenodd;stroke:#000000;stroke-width:1pt;stroke-opacity:1;fill:#000000;fill-opacity:1"
         d="M 0.0,0.0 L 5.0,-5.0 L -12.5,0.0 L 5.0,5.0 L 0.0,0.0 z "
         id="path1350" />
    </marker>
    <marker
       inkscape:collect="always"
       inkscape:isstock="true"
       style="overflow:visible;"
       id="Arrow1Lend"
       refX="0.0"
       refY="0.0"
       orient="auto"
       inkscape:stockid="Arrow1Lend">
      <path
         transform="scale(0.8) rotate(180) translate(12.5,0)"
         style="fill-rule:evenodd;stroke:#000000;stroke-width:1pt;stroke-opacity:1;fill:#000000;fill-opacity:1"
         d="M 0.0,0.0 L 5.0,-5.0 L -12.5,0.0 L 5.0,5.0 L 0.0,0.0 z "
         id="path1077" />
    </marker>
    <inkscape:path-effect
       effect="spiro"
       id="path-effect1072"
       is_visible="true"
       lpeversion="1" />
    <inkscape:path-effect
       lpeversion="1"
       is_visible="true"
       id="path-effect1070"
       effect="spiro" />
    <inkscape:path-effect
       effect="spiro"
       id="path-effect1046"
       is_visible="true"
       lpeversion="1" />
    <inkscape:path-effect
       lpeversion="1"
       is_visible="true"
       id="path-effect1027"
       effect="spiro" />
    <rect
       id="rect1015"
       height="38.364583"
       width="35.71875"
       y="102.43155"
       x="98.084822" />
    <rect
       id="rect835"
       height="37.608631"
       width="39.6875"
       y="39.309524"
       x="9.827381" />
    <g
       id="g7735">
      <symbol
         id="symbol7342"
         overflow="visible">
        <path
           id="path4410"
           d=""
           style="stroke:none;" />
      </symbol>
      <symbol
         id="symbol6021"
         overflow="visible">
        <path
           id="path3085"
           d="M 4.671875 -3.703125 C 4.671875 -4.25 4.40625 -4.40625 4.234375 -4.40625 C 3.984375 -4.40625 3.734375 -4.140625 3.734375 -3.921875 C 3.734375 -3.796875 3.78125 -3.734375 3.890625 -3.625 C 4.109375 -3.421875 4.234375 -3.171875 4.234375 -2.8125 C 4.234375 -2.390625 3.625 -0.109375 2.46875 -0.109375 C 1.953125 -0.109375 1.71875 -0.453125 1.71875 -0.984375 C 1.71875 -1.53125 2 -2.265625 2.296875 -3.09375 C 2.375 -3.265625 2.421875 -3.40625 2.421875 -3.59375 C 2.421875 -4.03125 2.109375 -4.40625 1.609375 -4.40625 C 0.671875 -4.40625 0.296875 -2.953125 0.296875 -2.875 C 0.296875 -2.765625 0.390625 -2.765625 0.40625 -2.765625 C 0.515625 -2.765625 0.515625 -2.796875 0.5625 -2.953125 C 0.859375 -3.953125 1.28125 -4.1875 1.578125 -4.1875 C 1.65625 -4.1875 1.828125 -4.1875 1.828125 -3.875 C 1.828125 -3.625 1.71875 -3.34375 1.65625 -3.171875 C 1.21875 -2.015625 1.09375 -1.5625 1.09375 -1.125 C 1.09375 -0.046875 1.96875 0.109375 2.421875 0.109375 C 4.09375 0.109375 4.671875 -3.1875 4.671875 -3.703125 Z M 4.671875 -3.703125 "
           style="stroke:none;" />
      </symbol>
      <symbol
         id="symbol9143"
         overflow="visible">
        <path
           id="path5123"
           d=""
           style="stroke:none;" />
      </symbol>
      <symbol
         id="symbol2810"
         overflow="visible">
        <path
           id="path9962"
           d="M 0.515625 0.84375 C 0.46875 1.046875 0.453125 1.09375 0.1875 1.09375 C 0.09375 1.09375 0 1.09375 0 1.25 C 0 1.328125 0.0625 1.359375 0.09375 1.359375 C 0.265625 1.359375 0.5 1.328125 0.6875 1.328125 C 0.921875 1.328125 1.1875 1.359375 1.421875 1.359375 C 1.484375 1.359375 1.5625 1.328125 1.5625 1.203125 C 1.5625 1.09375 1.46875 1.09375 1.375 1.09375 C 1.21875 1.09375 1.03125 1.09375 1.03125 1.015625 C 1.03125 0.984375 1.09375 0.796875 1.109375 0.703125 C 1.203125 0.328125 1.296875 -0.046875 1.375 -0.34375 C 1.453125 -0.203125 1.671875 0.0625 2.09375 0.0625 C 2.9375 0.0625 3.875 -0.875 3.875 -1.90625 C 3.875 -2.71875 3.3125 -3.078125 2.84375 -3.078125 C 2.40625 -3.078125 2.03125 -2.78125 1.84375 -2.578125 C 1.734375 -2.984375 1.34375 -3.078125 1.125 -3.078125 C 0.859375 -3.078125 0.6875 -2.890625 0.578125 -2.703125 C 0.4375 -2.46875 0.328125 -2.046875 0.328125 -2 C 0.328125 -1.921875 0.421875 -1.921875 0.453125 -1.921875 C 0.546875 -1.921875 0.546875 -1.9375 0.59375 -2.125 C 0.703125 -2.53125 0.84375 -2.875 1.109375 -2.875 C 1.296875 -2.875 1.34375 -2.71875 1.34375 -2.53125 C 1.34375 -2.453125 1.328125 -2.375 1.3125 -2.328125 Z M 1.84375 -2.234375 C 2.25 -2.78125 2.59375 -2.875 2.8125 -2.875 C 3.09375 -2.875 3.328125 -2.671875 3.328125 -2.203125 C 3.328125 -1.921875 3.171875 -1.203125 2.96875 -0.796875 C 2.78125 -0.453125 2.453125 -0.125 2.09375 -0.125 C 1.59375 -0.125 1.46875 -0.65625 1.46875 -0.734375 C 1.46875 -0.765625 1.484375 -0.8125 1.484375 -0.84375 Z M 1.84375 -2.234375 "
           style="stroke:none;" />
      </symbol>
      <symbol
         id="symbol2175"
         overflow="visible">
        <path
           id="path6646"
           d="M 3.046875 -2.671875 C 2.796875 -2.625 2.703125 -2.4375 2.703125 -2.28125 C 2.703125 -2.09375 2.84375 -2.015625 2.96875 -2.015625 C 3.125 -2.015625 3.359375 -2.125 3.359375 -2.46875 C 3.359375 -2.9375 2.828125 -3.078125 2.453125 -3.078125 C 1.40625 -3.078125 0.4375 -2.109375 0.4375 -1.140625 C 0.4375 -0.546875 0.84375 0.0625 1.71875 0.0625 C 2.90625 0.0625 3.453125 -0.625 3.453125 -0.71875 C 3.453125 -0.765625 3.390625 -0.84375 3.328125 -0.84375 C 3.296875 -0.84375 3.28125 -0.828125 3.21875 -0.765625 C 2.671875 -0.125 1.859375 -0.125 1.734375 -0.125 C 1.234375 -0.125 1.015625 -0.46875 1.015625 -0.90625 C 1.015625 -1.09375 1.109375 -1.859375 1.46875 -2.34375 C 1.734375 -2.6875 2.09375 -2.875 2.453125 -2.875 C 2.546875 -2.875 2.875 -2.859375 3.046875 -2.671875 Z M 3.046875 -2.671875 "
           style="stroke:none;" />
      </symbol>
      <symbol
         id="symbol973"
         overflow="visible">
        <path
           id="path882"
           d="M 2.84375 -2.75 L 3.515625 -2.75 C 3.65625 -2.75 3.75 -2.75 3.75 -2.90625 C 3.75 -3 3.65625 -3 3.53125 -3 L 2.890625 -3 C 3.046875 -3.890625 3.09375 -4.203125 3.15625 -4.40625 C 3.1875 -4.5625 3.34375 -4.703125 3.515625 -4.703125 C 3.515625 -4.703125 3.703125 -4.703125 3.84375 -4.625 C 3.546875 -4.53125 3.53125 -4.28125 3.53125 -4.25 C 3.53125 -4.09375 3.65625 -3.984375 3.8125 -3.984375 C 4 -3.984375 4.203125 -4.140625 4.203125 -4.40625 C 4.203125 -4.734375 3.875 -4.90625 3.515625 -4.90625 C 3.203125 -4.90625 2.859375 -4.734375 2.671875 -4.390625 C 2.53125 -4.125 2.484375 -3.8125 2.328125 -3 L 1.78125 -3 C 1.640625 -3 1.546875 -3 1.546875 -2.84375 C 1.546875 -2.75 1.640625 -2.75 1.765625 -2.75 L 2.28125 -2.75 C 2.28125 -2.703125 1.84375 -0.203125 1.671875 0.546875 C 1.640625 0.703125 1.515625 1.21875 1.1875 1.21875 C 1.171875 1.21875 1.015625 1.21875 0.875 1.140625 C 1.15625 1.046875 1.1875 0.796875 1.1875 0.765625 C 1.1875 0.609375 1.0625 0.5 0.90625 0.5 C 0.71875 0.5 0.515625 0.65625 0.515625 0.921875 C 0.515625 1.234375 0.84375 1.421875 1.1875 1.421875 C 1.625 1.421875 1.9375 0.96875 2.015625 0.8125 C 2.265625 0.34375 2.4375 -0.515625 2.453125 -0.59375 Z M 2.84375 -2.75 "
           style="stroke:none;" />
      </symbol>
    </g>
    <g
       id="g4441">
      <symbol
         id="symbol704"
         overflow="visible">
        <path
           id="path3827"
           d=""
           style="stroke:none;" />
      </symbol>
      <symbol
         id="symbol1247"
         overflow="visible">
        <path
           id="path9646"
           d="M 2.96875 -2.25 C 3.125 -2.25 3.3125 -2.25 3.3125 -2.421875 C 3.3125 -2.5625 3.1875 -2.5625 3.015625 -2.5625 L 1.40625 -2.5625 C 1.640625 -3.40625 2.203125 -3.984375 3.109375 -3.984375 L 3.421875 -3.984375 C 3.59375 -3.984375 3.75 -3.984375 3.75 -4.15625 C 3.75 -4.296875 3.625 -4.296875 3.453125 -4.296875 L 3.09375 -4.296875 C 1.796875 -4.296875 0.46875 -3.296875 0.46875 -1.78125 C 0.46875 -0.671875 1.21875 0.109375 2.265625 0.109375 C 2.921875 0.109375 3.5625 -0.296875 3.5625 -0.40625 C 3.5625 -0.421875 3.5625 -0.53125 3.46875 -0.53125 C 3.453125 -0.53125 3.421875 -0.53125 3.34375 -0.484375 C 3.03125 -0.28125 2.65625 -0.109375 2.296875 -0.109375 C 1.71875 -0.109375 1.21875 -0.53125 1.21875 -1.40625 C 1.21875 -1.75 1.296875 -2.140625 1.328125 -2.25 Z M 2.96875 -2.25 "
           style="stroke:none;" />
      </symbol>
    </g>
    <g
       id="g9202">
      <symbol
         id="symbol2948"
         overflow="visible">
        <path
           id="path3986"
           d=""
           style="stroke:none;" />
      </symbol>
      <symbol
         id="symbol8596"
         overflow="visible">
        <path
           id="path6020"
           d="M 4.671875 -3.703125 C 4.671875 -4.25 4.40625 -4.40625 4.234375 -4.40625 C 3.984375 -4.40625 3.734375 -4.140625 3.734375 -3.921875 C 3.734375 -3.796875 3.78125 -3.734375 3.890625 -3.625 C 4.109375 -3.421875 4.234375 -3.171875 4.234375 -2.8125 C 4.234375 -2.390625 3.625 -0.109375 2.46875 -0.109375 C 1.953125 -0.109375 1.71875 -0.453125 1.71875 -0.984375 C 1.71875 -1.53125 2 -2.265625 2.296875 -3.09375 C 2.375 -3.265625 2.421875 -3.40625 2.421875 -3.59375 C 2.421875 -4.03125 2.109375 -4.40625 1.609375 -4.40625 C 0.671875 -4.40625 0.296875 -2.953125 0.296875 -2.875 C 0.296875 -2.765625 0.390625 -2.765625 0.40625 -2.765625 C 0.515625 -2.765625 0.515625 -2.796875 0.5625 -2.953125 C 0.859375 -3.953125 1.28125 -4.1875 1.578125 -4.1875 C 1.65625 -4.1875 1.828125 -4.1875 1.828125 -3.875 C 1.828125 -3.625 1.71875 -3.34375 1.65625 -3.171875 C 1.21875 -2.015625 1.09375 -1.5625 1.09375 -1.125 C 1.09375 -0.046875 1.96875 0.109375 2.421875 0.109375 C 4.09375 0.109375 4.671875 -3.1875 4.671875 -3.703125 Z M 4.671875 -3.703125 "
           style="stroke:none;" />
      </symbol>
    </g>
    <marker
       inkscape:stockid="Arrow2Lend"
       orient="auto"
       refY="0"
       refX="0"
       id="Arrow2Lend-9"
       style="overflow:visible"
       inkscape:isstock="true">
      <path
         id="path1095-6"
         style="fill:#000000;fill-opacity:1;fill-rule:evenodd;stroke:#000000;stroke-width:0.625;stroke-linejoin:round;stroke-opacity:1"
         d="M 8.7185878,4.0337352 -2.2072895,0.01601326 8.7185884,-4.0017078 c -1.7454984,2.3720609 -1.7354408,5.6174519 -6e-7,8.035443 z"
         transform="matrix(-1.1,0,0,-1.1,-1.1,0)" />
    </marker>
    <marker
       inkscape:stockid="Arrow1Lstart"
       orient="auto"
       refY="0"
       refX="0"
       id="Arrow1Lstart-9"
       style="overflow:visible"
       inkscape:isstock="true">
      <path
         id="path1074-5"
         d="M 0,0 5,-5 -12.5,0 5,5 Z"
         style="fill:#000000;fill-opacity:1;fill-rule:evenodd;stroke:#000000;stroke-width:1pt;stroke-opacity:1"
         transform="matrix(0.8,0,0,0.8,10,0)" />
    </marker>
    <marker
       inkscape:stockid="Arrow1Lend"
       orient="auto"
       refY="0"
       refX="0"
       id="Arrow1Lend-7"
       style="overflow:visible"
       inkscape:isstock="true"
       inkscape:collect="always">
      <path
         id="path1077-7"
         d="M 0,0 5,-5 -12.5,0 5,5 Z"
         style="fill:#000000;fill-opacity:1;fill-rule:evenodd;stroke:#000000;stroke-width:1pt;stroke-opacity:1"
         transform="matrix(-0.8,0,0,-0.8,-10,0)" />
    </marker>
    <marker
       inkscape:stockid="Arrow1Lend"
       orient="auto"
       refY="0"
       refX="0"
       id="marker1352-2"
       style="overflow:visible"
       inkscape:isstock="true">
      <path
         id="path1350-9"
         d="M 0,0 5,-5 -12.5,0 5,5 Z"
         style="fill:#000000;fill-opacity:1;fill-rule:evenodd;stroke:#000000;stroke-width:1pt;stroke-opacity:1"
         transform="matrix(-0.8,0,0,-0.8,-10,0)" />
    </marker>
    <g
       id="g8243">
      <symbol
         id="symbol7224"
         overflow="visible">
        <path
           id="path868"
           d=""
           style="stroke:none;" />
      </symbol>
      <symbol
         id="symbol7374"
         overflow="visible">
        <path
           id="path8174"
           d="M 6.328125 -5.765625 C 6.4375 -6.171875 6.609375 -6.46875 7.40625 -6.5 C 7.453125 -6.5 7.578125 -6.515625 7.578125 -6.703125 C 7.578125 -6.703125 7.578125 -6.8125 7.453125 -6.8125 C 7.125 -6.8125 6.765625 -6.78125 6.4375 -6.78125 C 6.09375 -6.78125 5.71875 -6.8125 5.390625 -6.8125 C 5.328125 -6.8125 5.21875 -6.8125 5.21875 -6.609375 C 5.21875 -6.5 5.3125 -6.5 5.390625 -6.5 C 5.96875 -6.484375 6.078125 -6.28125 6.078125 -6.0625 C 6.078125 -6.03125 6.046875 -5.875 6.046875 -5.859375 L 5.140625 -2.296875 C 4.8125 -0.953125 3.65625 -0.09375 2.65625 -0.09375 C 1.984375 -0.09375 1.453125 -0.53125 1.453125 -1.390625 C 1.453125 -1.40625 1.453125 -1.71875 1.5625 -2.15625 L 2.515625 -6.046875 C 2.609375 -6.40625 2.625 -6.5 3.359375 -6.5 C 3.625 -6.5 3.703125 -6.5 3.703125 -6.703125 C 3.703125 -6.8125 3.59375 -6.8125 3.5625 -6.8125 C 3.28125 -6.8125 2.5625 -6.78125 2.28125 -6.78125 C 2 -6.78125 1.28125 -6.8125 1 -6.8125 C 0.921875 -6.8125 0.8125 -6.8125 0.8125 -6.609375 C 0.8125 -6.5 0.890625 -6.5 1.09375 -6.5 C 1.109375 -6.5 1.296875 -6.5 1.46875 -6.484375 C 1.640625 -6.453125 1.734375 -6.453125 1.734375 -6.3125 C 1.734375 -6.265625 1.625 -5.84375 1.5625 -5.609375 L 1.34375 -4.734375 C 1.25 -4.34375 0.78125 -2.46875 0.734375 -2.265625 C 0.671875 -2 0.671875 -1.84375 0.671875 -1.6875 C 0.671875 -0.484375 1.578125 0.21875 2.625 0.21875 C 3.875 0.21875 5.109375 -0.90625 5.4375 -2.21875 Z M 6.328125 -5.765625 "
           style="stroke:none;" />
      </symbol>
      <symbol
         id="symbol9114"
         overflow="visible">
        <path
           id="path5405"
           d=""
           style="stroke:none;" />
      </symbol>
      <symbol
         id="symbol3799"
         overflow="visible">
        <path
           id="path8967"
           d="M 3.390625 -4.21875 C 3.4375 -4.421875 3.453125 -4.4375 3.609375 -4.453125 C 3.640625 -4.453125 3.875 -4.453125 4.015625 -4.453125 C 4.453125 -4.453125 4.625 -4.453125 4.796875 -4.40625 C 5.109375 -4.3125 5.125 -4.109375 5.125 -3.859375 C 5.125 -3.75 5.125 -3.65625 5.078125 -3.296875 L 5.0625 -3.21875 C 5.0625 -3.140625 5.109375 -3.109375 5.1875 -3.109375 C 5.296875 -3.109375 5.296875 -3.171875 5.3125 -3.28125 L 5.5 -4.609375 C 5.5 -4.703125 5.421875 -4.703125 5.296875 -4.703125 L 1.015625 -4.703125 C 0.84375 -4.703125 0.828125 -4.703125 0.78125 -4.5625 L 0.328125 -3.328125 C 0.328125 -3.296875 0.296875 -3.234375 0.296875 -3.203125 C 0.296875 -3.171875 0.3125 -3.109375 0.421875 -3.109375 C 0.515625 -3.109375 0.515625 -3.140625 0.5625 -3.28125 C 0.96875 -4.390625 1.203125 -4.453125 2.265625 -4.453125 L 2.546875 -4.453125 C 2.765625 -4.453125 2.765625 -4.453125 2.765625 -4.390625 C 2.765625 -4.390625 2.765625 -4.34375 2.734375 -4.25 L 1.8125 -0.578125 C 1.75 -0.328125 1.734375 -0.25 1 -0.25 C 0.75 -0.25 0.6875 -0.25 0.6875 -0.09375 C 0.6875 -0.078125 0.703125 0 0.8125 0 C 1 0 1.21875 -0.015625 1.40625 -0.015625 C 1.609375 -0.015625 1.8125 -0.03125 2 -0.03125 C 2.203125 -0.03125 2.4375 -0.03125 2.640625 -0.015625 C 2.828125 -0.015625 3.03125 0 3.21875 0 C 3.28125 0 3.375 0 3.375 -0.15625 C 3.375 -0.25 3.3125 -0.25 3.09375 -0.25 C 2.96875 -0.25 2.828125 -0.265625 2.6875 -0.265625 C 2.453125 -0.28125 2.4375 -0.3125 2.4375 -0.390625 C 2.4375 -0.453125 2.4375 -0.453125 2.46875 -0.5625 Z M 3.390625 -4.21875 "
           style="stroke:none;" />
      </symbol>
    </g>
    <g
       id="g9495">
      <symbol
         id="symbol3236"
         overflow="visible">
        <path
           id="path7560"
           d=""
           style="stroke:none;" />
      </symbol>
      <symbol
         id="symbol4878"
         overflow="visible">
        <path
           id="path5387"
           d="M 6.328125 -5.765625 C 6.4375 -6.171875 6.609375 -6.46875 7.40625 -6.5 C 7.453125 -6.5 7.578125 -6.515625 7.578125 -6.703125 C 7.578125 -6.703125 7.578125 -6.8125 7.453125 -6.8125 C 7.125 -6.8125 6.765625 -6.78125 6.4375 -6.78125 C 6.09375 -6.78125 5.71875 -6.8125 5.390625 -6.8125 C 5.328125 -6.8125 5.21875 -6.8125 5.21875 -6.609375 C 5.21875 -6.5 5.3125 -6.5 5.390625 -6.5 C 5.96875 -6.484375 6.078125 -6.28125 6.078125 -6.0625 C 6.078125 -6.03125 6.046875 -5.875 6.046875 -5.859375 L 5.140625 -2.296875 C 4.8125 -0.953125 3.65625 -0.09375 2.65625 -0.09375 C 1.984375 -0.09375 1.453125 -0.53125 1.453125 -1.390625 C 1.453125 -1.40625 1.453125 -1.71875 1.5625 -2.15625 L 2.515625 -6.046875 C 2.609375 -6.40625 2.625 -6.5 3.359375 -6.5 C 3.625 -6.5 3.703125 -6.5 3.703125 -6.703125 C 3.703125 -6.8125 3.59375 -6.8125 3.5625 -6.8125 C 3.28125 -6.8125 2.5625 -6.78125 2.28125 -6.78125 C 2 -6.78125 1.28125 -6.8125 1 -6.8125 C 0.921875 -6.8125 0.8125 -6.8125 0.8125 -6.609375 C 0.8125 -6.5 0.890625 -6.5 1.09375 -6.5 C 1.109375 -6.5 1.296875 -6.5 1.46875 -6.484375 C 1.640625 -6.453125 1.734375 -6.453125 1.734375 -6.3125 C 1.734375 -6.265625 1.625 -5.84375 1.5625 -5.609375 L 1.34375 -4.734375 C 1.25 -4.34375 0.78125 -2.46875 0.734375 -2.265625 C 0.671875 -2 0.671875 -1.84375 0.671875 -1.6875 C 0.671875 -0.484375 1.578125 0.21875 2.625 0.21875 C 3.875 0.21875 5.109375 -0.90625 5.4375 -2.21875 Z M 6.328125 -5.765625 "
           style="stroke:none;" />
      </symbol>
    </g>
    <g
       id="g586">
      <symbol
         id="symbol7228"
         overflow="visible">
        <path
           id="path373"
           d=""
           style="stroke:none;" />
      </symbol>
      <symbol
         id="symbol2023"
         overflow="visible">
        <path
           id="path516"
           d="M 6.265625 -5.671875 C 6.75 -6.453125 7.171875 -6.484375 7.53125 -6.5 C 7.65625 -6.515625 7.671875 -6.671875 7.671875 -6.6875 C 7.671875 -6.765625 7.609375 -6.8125 7.53125 -6.8125 C 7.28125 -6.8125 6.984375 -6.78125 6.71875 -6.78125 C 6.390625 -6.78125 6.046875 -6.8125 5.734375 -6.8125 C 5.671875 -6.8125 5.546875 -6.8125 5.546875 -6.625 C 5.546875 -6.515625 5.625 -6.5 5.703125 -6.5 C 5.96875 -6.484375 6.15625 -6.375 6.15625 -6.171875 C 6.15625 -6.015625 6.015625 -5.796875 6.015625 -5.796875 L 2.953125 -0.921875 L 2.265625 -6.203125 C 2.265625 -6.375 2.5 -6.5 2.953125 -6.5 C 3.09375 -6.5 3.203125 -6.5 3.203125 -6.703125 C 3.203125 -6.78125 3.125 -6.8125 3.078125 -6.8125 C 2.671875 -6.8125 2.25 -6.78125 1.828125 -6.78125 C 1.65625 -6.78125 1.46875 -6.78125 1.28125 -6.78125 C 1.109375 -6.78125 0.921875 -6.8125 0.75 -6.8125 C 0.671875 -6.8125 0.5625 -6.8125 0.5625 -6.625 C 0.5625 -6.5 0.640625 -6.5 0.8125 -6.5 C 1.359375 -6.5 1.375 -6.40625 1.40625 -6.15625 L 2.1875 -0.015625 C 2.21875 0.1875 2.265625 0.21875 2.390625 0.21875 C 2.546875 0.21875 2.59375 0.171875 2.671875 0.046875 Z M 6.265625 -5.671875 "
           style="stroke:none;" />
      </symbol>
      <symbol
         id="symbol5761"
         overflow="visible">
        <path
           id="path9712"
           d=""
           style="stroke:none;" />
      </symbol>
      <symbol
         id="symbol6541"
         overflow="visible">
        <path
           id="path4055"
           d="M 3.390625 -4.21875 C 3.4375 -4.421875 3.453125 -4.4375 3.609375 -4.453125 C 3.640625 -4.453125 3.875 -4.453125 4.015625 -4.453125 C 4.453125 -4.453125 4.625 -4.453125 4.796875 -4.40625 C 5.109375 -4.3125 5.125 -4.109375 5.125 -3.859375 C 5.125 -3.75 5.125 -3.65625 5.078125 -3.296875 L 5.0625 -3.21875 C 5.0625 -3.140625 5.109375 -3.109375 5.1875 -3.109375 C 5.296875 -3.109375 5.296875 -3.171875 5.3125 -3.28125 L 5.5 -4.609375 C 5.5 -4.703125 5.421875 -4.703125 5.296875 -4.703125 L 1.015625 -4.703125 C 0.84375 -4.703125 0.828125 -4.703125 0.78125 -4.5625 L 0.328125 -3.328125 C 0.328125 -3.296875 0.296875 -3.234375 0.296875 -3.203125 C 0.296875 -3.171875 0.3125 -3.109375 0.421875 -3.109375 C 0.515625 -3.109375 0.515625 -3.140625 0.5625 -3.28125 C 0.96875 -4.390625 1.203125 -4.453125 2.265625 -4.453125 L 2.546875 -4.453125 C 2.765625 -4.453125 2.765625 -4.453125 2.765625 -4.390625 C 2.765625 -4.390625 2.765625 -4.34375 2.734375 -4.25 L 1.8125 -0.578125 C 1.75 -0.328125 1.734375 -0.25 1 -0.25 C 0.75 -0.25 0.6875 -0.25 0.6875 -0.09375 C 0.6875 -0.078125 0.703125 0 0.8125 0 C 1 0 1.21875 -0.015625 1.40625 -0.015625 C 1.609375 -0.015625 1.8125 -0.03125 2 -0.03125 C 2.203125 -0.03125 2.4375 -0.03125 2.640625 -0.015625 C 2.828125 -0.015625 3.03125 0 3.21875 0 C 3.28125 0 3.375 0 3.375 -0.15625 C 3.375 -0.25 3.3125 -0.25 3.09375 -0.25 C 2.96875 -0.25 2.828125 -0.265625 2.6875 -0.265625 C 2.453125 -0.28125 2.4375 -0.3125 2.4375 -0.390625 C 2.4375 -0.453125 2.4375 -0.453125 2.46875 -0.5625 Z M 3.390625 -4.21875 "
           style="stroke:none;" />
      </symbol>
    </g>
    <g
       id="g2379">
      <symbol
         id="symbol9363"
         overflow="visible">
        <path
           id="path4311"
           d=""
           style="stroke:none;" />
      </symbol>
      <symbol
         id="symbol8366"
         overflow="visible">
        <path
           id="path4048"
           d="M 6.265625 -5.671875 C 6.75 -6.453125 7.171875 -6.484375 7.53125 -6.5 C 7.65625 -6.515625 7.671875 -6.671875 7.671875 -6.6875 C 7.671875 -6.765625 7.609375 -6.8125 7.53125 -6.8125 C 7.28125 -6.8125 6.984375 -6.78125 6.71875 -6.78125 C 6.390625 -6.78125 6.046875 -6.8125 5.734375 -6.8125 C 5.671875 -6.8125 5.546875 -6.8125 5.546875 -6.625 C 5.546875 -6.515625 5.625 -6.5 5.703125 -6.5 C 5.96875 -6.484375 6.15625 -6.375 6.15625 -6.171875 C 6.15625 -6.015625 6.015625 -5.796875 6.015625 -5.796875 L 2.953125 -0.921875 L 2.265625 -6.203125 C 2.265625 -6.375 2.5 -6.5 2.953125 -6.5 C 3.09375 -6.5 3.203125 -6.5 3.203125 -6.703125 C 3.203125 -6.78125 3.125 -6.8125 3.078125 -6.8125 C 2.671875 -6.8125 2.25 -6.78125 1.828125 -6.78125 C 1.65625 -6.78125 1.46875 -6.78125 1.28125 -6.78125 C 1.109375 -6.78125 0.921875 -6.8125 0.75 -6.8125 C 0.671875 -6.8125 0.5625 -6.8125 0.5625 -6.625 C 0.5625 -6.5 0.640625 -6.5 0.8125 -6.5 C 1.359375 -6.5 1.375 -6.40625 1.40625 -6.15625 L 2.1875 -0.015625 C 2.21875 0.1875 2.265625 0.21875 2.390625 0.21875 C 2.546875 0.21875 2.59375 0.171875 2.671875 0.046875 Z M 6.265625 -5.671875 "
           style="stroke:none;" />
      </symbol>
    </g>
    <marker
       inkscape:stockid="Arrow2Lend"
       orient="auto"
       refY="0"
       refX="0"
       id="Arrow2Lend-1"
       style="overflow:visible"
       inkscape:isstock="true"
       inkscape:collect="always">
      <path
         id="path1095-2"
         style="fill:#000000;fill-opacity:1;fill-rule:evenodd;stroke:#000000;stroke-width:0.625;stroke-linejoin:round;stroke-opacity:1"
         d="M 8.7185878,4.0337352 -2.2072895,0.01601326 8.7185884,-4.0017078 c -1.7454984,2.3720609 -1.7354408,5.6174519 -6e-7,8.035443 z"
         transform="matrix(-1.1,0,0,-1.1,-1.1,0)" />
    </marker>
    <marker
       inkscape:collect="always"
       inkscape:isstock="true"
       style="overflow:visible"
       id="Arrow2Lend-1-7"
       refX="0"
       refY="0"
       orient="auto"
       inkscape:stockid="Arrow2Lend">
      <path
         transform="matrix(-1.1,0,0,-1.1,-1.1,0)"
         d="M 8.7185878,4.0337352 -2.2072895,0.01601326 8.7185884,-4.0017078 c -1.7454984,2.3720609 -1.7354408,5.6174519 -6e-7,8.035443 z"
         style="fill:#000000;fill-opacity:1;fill-rule:evenodd;stroke:#000000;stroke-width:0.625;stroke-linejoin:round;stroke-opacity:1"
         id="path1095-2-7" />
    </marker>
    <marker
       inkscape:stockid="Arrow2Lend"
       orient="auto"
       refY="0"
       refX="0"
       id="Arrow2Lend-6"
       style="overflow:visible"
       inkscape:isstock="true"
       inkscape:collect="always">
      <path
         id="path1095-4"
         style="fill:#000000;fill-opacity:1;fill-rule:evenodd;stroke:#000000;stroke-width:0.625;stroke-linejoin:round;stroke-opacity:1"
         d="M 8.7185878,4.0337352 -2.2072895,0.01601326 8.7185884,-4.0017078 c -1.7454984,2.3720609 -1.7354408,5.6174519 -6e-7,8.035443 z"
         transform="matrix(-1.1,0,0,-1.1,-1.1,0)" />
    </marker>
    <marker
       inkscape:stockid="Arrow1Lend"
       orient="auto"
       refY="0"
       refX="0"
       id="marker1352-7"
       style="overflow:visible"
       inkscape:isstock="true">
      <path
         id="path1350-1"
         d="M 0,0 5,-5 -12.5,0 5,5 Z"
         style="fill:#000000;fill-opacity:1;fill-rule:evenodd;stroke:#000000;stroke-width:1pt;stroke-opacity:1"
         transform="matrix(-0.8,0,0,-0.8,-10,0)" />
    </marker>
    <g
       id="g6808">
      <symbol
         id="symbol8072"
         overflow="visible">
        <path
           id="path596"
           d=""
           style="stroke:none;" />
      </symbol>
      <symbol
         id="symbol7819"
         overflow="visible">
        <path
           id="path7733"
           d="M 1.578125 -0.78125 C 1.484375 -0.390625 1.46875 -0.3125 0.671875 -0.3125 C 0.515625 -0.3125 0.40625 -0.3125 0.40625 -0.125 C 0.40625 0 0.484375 0 0.671875 0 L 3.984375 0 C 6.046875 0 8.015625 -2.109375 8.015625 -4.28125 C 8.015625 -5.6875 7.171875 -6.8125 5.671875 -6.8125 L 2.328125 -6.8125 C 2.140625 -6.8125 2.03125 -6.8125 2.03125 -6.625 C 2.03125 -6.5 2.109375 -6.5 2.3125 -6.5 C 2.4375 -6.5 2.625 -6.484375 2.734375 -6.484375 C 2.90625 -6.453125 2.953125 -6.4375 2.953125 -6.3125 C 2.953125 -6.28125 2.953125 -6.25 2.921875 -6.125 Z M 3.734375 -6.125 C 3.828125 -6.46875 3.84375 -6.5 4.28125 -6.5 L 5.34375 -6.5 C 6.3125 -6.5 7.140625 -5.96875 7.140625 -4.65625 C 7.140625 -4.171875 6.953125 -2.53125 6.09375 -1.4375 C 5.8125 -1.0625 5.03125 -0.3125 3.796875 -0.3125 L 2.671875 -0.3125 C 2.53125 -0.3125 2.515625 -0.3125 2.453125 -0.3125 C 2.359375 -0.328125 2.328125 -0.34375 2.328125 -0.421875 C 2.328125 -0.453125 2.328125 -0.46875 2.375 -0.640625 Z M 3.734375 -6.125 "
           style="stroke:none;" />
      </symbol>
      <symbol
         id="symbol8925"
         overflow="visible">
        <path
           id="path1412"
           d=""
           style="stroke:none;" />
      </symbol>
      <symbol
         id="symbol2932"
         overflow="visible">
        <path
           id="path2226"
           d="M 3.390625 -4.21875 C 3.4375 -4.421875 3.453125 -4.4375 3.609375 -4.453125 C 3.640625 -4.453125 3.875 -4.453125 4.015625 -4.453125 C 4.453125 -4.453125 4.625 -4.453125 4.796875 -4.40625 C 5.109375 -4.3125 5.125 -4.109375 5.125 -3.859375 C 5.125 -3.75 5.125 -3.65625 5.078125 -3.296875 L 5.0625 -3.21875 C 5.0625 -3.140625 5.109375 -3.109375 5.1875 -3.109375 C 5.296875 -3.109375 5.296875 -3.171875 5.3125 -3.28125 L 5.5 -4.609375 C 5.5 -4.703125 5.421875 -4.703125 5.296875 -4.703125 L 1.015625 -4.703125 C 0.84375 -4.703125 0.828125 -4.703125 0.78125 -4.5625 L 0.328125 -3.328125 C 0.328125 -3.296875 0.296875 -3.234375 0.296875 -3.203125 C 0.296875 -3.171875 0.3125 -3.109375 0.421875 -3.109375 C 0.515625 -3.109375 0.515625 -3.140625 0.5625 -3.28125 C 0.96875 -4.390625 1.203125 -4.453125 2.265625 -4.453125 L 2.546875 -4.453125 C 2.765625 -4.453125 2.765625 -4.453125 2.765625 -4.390625 C 2.765625 -4.390625 2.765625 -4.34375 2.734375 -4.25 L 1.8125 -0.578125 C 1.75 -0.328125 1.734375 -0.25 1 -0.25 C 0.75 -0.25 0.6875 -0.25 0.6875 -0.09375 C 0.6875 -0.078125 0.703125 0 0.8125 0 C 1 0 1.21875 -0.015625 1.40625 -0.015625 C 1.609375 -0.015625 1.8125 -0.03125 2 -0.03125 C 2.203125 -0.03125 2.4375 -0.03125 2.640625 -0.015625 C 2.828125 -0.015625 3.03125 0 3.21875 0 C 3.28125 0 3.375 0 3.375 -0.15625 C 3.375 -0.25 3.3125 -0.25 3.09375 -0.25 C 2.96875 -0.25 2.828125 -0.265625 2.6875 -0.265625 C 2.453125 -0.28125 2.4375 -0.3125 2.4375 -0.390625 C 2.4375 -0.453125 2.4375 -0.453125 2.46875 -0.5625 Z M 3.390625 -4.21875 "
           style="stroke:none;" />
      </symbol>
    </g>
    <g
       id="g1696">
      <symbol
         id="symbol5131"
         overflow="visible">
        <path
           id="path1965"
           d=""
           style="stroke:none;" />
      </symbol>
      <symbol
         id="symbol7043"
         overflow="visible">
        <path
           id="path9151"
           d="M 1.578125 -0.78125 C 1.484375 -0.390625 1.46875 -0.3125 0.671875 -0.3125 C 0.515625 -0.3125 0.40625 -0.3125 0.40625 -0.125 C 0.40625 0 0.484375 0 0.671875 0 L 3.984375 0 C 6.046875 0 8.015625 -2.109375 8.015625 -4.28125 C 8.015625 -5.6875 7.171875 -6.8125 5.671875 -6.8125 L 2.328125 -6.8125 C 2.140625 -6.8125 2.03125 -6.8125 2.03125 -6.625 C 2.03125 -6.5 2.109375 -6.5 2.3125 -6.5 C 2.4375 -6.5 2.625 -6.484375 2.734375 -6.484375 C 2.90625 -6.453125 2.953125 -6.4375 2.953125 -6.3125 C 2.953125 -6.28125 2.953125 -6.25 2.921875 -6.125 Z M 3.734375 -6.125 C 3.828125 -6.46875 3.84375 -6.5 4.28125 -6.5 L 5.34375 -6.5 C 6.3125 -6.5 7.140625 -5.96875 7.140625 -4.65625 C 7.140625 -4.171875 6.953125 -2.53125 6.09375 -1.4375 C 5.8125 -1.0625 5.03125 -0.3125 3.796875 -0.3125 L 2.671875 -0.3125 C 2.53125 -0.3125 2.515625 -0.3125 2.453125 -0.3125 C 2.359375 -0.328125 2.328125 -0.34375 2.328125 -0.421875 C 2.328125 -0.453125 2.328125 -0.46875 2.375 -0.640625 Z M 3.734375 -6.125 "
           style="stroke:none;" />
      </symbol>
      <symbol
         id="symbol8375"
         overflow="visible">
        <path
           id="path76"
           d=""
           style="stroke:none;" />
      </symbol>
      <symbol
         id="symbol919"
         overflow="visible">
        <path
           id="path144"
           d="M 3.390625 -4.21875 C 3.4375 -4.421875 3.453125 -4.4375 3.609375 -4.453125 C 3.640625 -4.453125 3.875 -4.453125 4.015625 -4.453125 C 4.453125 -4.453125 4.625 -4.453125 4.796875 -4.40625 C 5.109375 -4.3125 5.125 -4.109375 5.125 -3.859375 C 5.125 -3.75 5.125 -3.65625 5.078125 -3.296875 L 5.0625 -3.21875 C 5.0625 -3.140625 5.109375 -3.109375 5.1875 -3.109375 C 5.296875 -3.109375 5.296875 -3.171875 5.3125 -3.28125 L 5.5 -4.609375 C 5.5 -4.703125 5.421875 -4.703125 5.296875 -4.703125 L 1.015625 -4.703125 C 0.84375 -4.703125 0.828125 -4.703125 0.78125 -4.5625 L 0.328125 -3.328125 C 0.328125 -3.296875 0.296875 -3.234375 0.296875 -3.203125 C 0.296875 -3.171875 0.3125 -3.109375 0.421875 -3.109375 C 0.515625 -3.109375 0.515625 -3.140625 0.5625 -3.28125 C 0.96875 -4.390625 1.203125 -4.453125 2.265625 -4.453125 L 2.546875 -4.453125 C 2.765625 -4.453125 2.765625 -4.453125 2.765625 -4.390625 C 2.765625 -4.390625 2.765625 -4.34375 2.734375 -4.25 L 1.8125 -0.578125 C 1.75 -0.328125 1.734375 -0.25 1 -0.25 C 0.75 -0.25 0.6875 -0.25 0.6875 -0.09375 C 0.6875 -0.078125 0.703125 0 0.8125 0 C 1 0 1.21875 -0.015625 1.40625 -0.015625 C 1.609375 -0.015625 1.8125 -0.03125 2 -0.03125 C 2.203125 -0.03125 2.4375 -0.03125 2.640625 -0.015625 C 2.828125 -0.015625 3.03125 0 3.21875 0 C 3.28125 0 3.375 0 3.375 -0.15625 C 3.375 -0.25 3.3125 -0.25 3.09375 -0.25 C 2.96875 -0.25 2.828125 -0.265625 2.6875 -0.265625 C 2.453125 -0.28125 2.4375 -0.3125 2.4375 -0.390625 C 2.4375 -0.453125 2.4375 -0.453125 2.46875 -0.5625 Z M 3.390625 -4.21875 "
           style="stroke:none;" />
      </symbol>
      <symbol
         id="symbol9689"
         overflow="visible">
        <path
           id="path5189"
           d=""
           style="stroke:none;" />
      </symbol>
      <symbol
         id="symbol4371"
         overflow="visible">
        <path
           id="path8457"
           d="M 1.90625 -2.90625 C 2.015625 -2.90625 2.078125 -2.890625 2.296875 -2.84375 C 2.515625 -2.78125 2.6875 -2.734375 2.8125 -2.734375 C 3.09375 -2.734375 3.109375 -2.9375 3.109375 -3 C 3.109375 -3.0625 3.09375 -3.28125 2.8125 -3.28125 C 2.6875 -3.28125 2.515625 -3.234375 2.296875 -3.171875 C 2.078125 -3.109375 2.015625 -3.109375 1.90625 -3.09375 C 1.921875 -3.34375 1.96875 -3.625 2 -3.84375 C 2.03125 -3.984375 2.09375 -4.34375 2.09375 -4.578125 C 2.09375 -4.796875 2 -4.90625 1.828125 -4.90625 C 1.671875 -4.90625 1.546875 -4.828125 1.546875 -4.578125 C 1.546875 -4.359375 1.609375 -4 1.65625 -3.765625 C 1.671875 -3.6875 1.734375 -3.359375 1.734375 -3.09375 C 1.640625 -3.109375 1.5625 -3.109375 1.359375 -3.171875 C 1.140625 -3.234375 0.96875 -3.28125 0.84375 -3.28125 C 0.5625 -3.28125 0.53125 -3.0625 0.53125 -3 C 0.53125 -2.953125 0.5625 -2.734375 0.84375 -2.734375 C 0.96875 -2.734375 1.140625 -2.78125 1.359375 -2.84375 C 1.5625 -2.890625 1.640625 -2.90625 1.734375 -2.90625 C 1.734375 -2.734375 1.671875 -2.515625 1.640625 -2.375 C 1.546875 -1.9375 1.546875 -1.890625 1.546875 -1.53125 C 1.546875 -0.1875 1.6875 1.25 1.703125 1.390625 C 1.71875 1.453125 1.734375 1.484375 1.828125 1.484375 C 1.9375 1.484375 1.9375 1.453125 1.953125 1.359375 C 1.953125 1.34375 2 0.734375 2.03125 0.3125 C 2.0625 -0.296875 2.09375 -0.90625 2.09375 -1.53125 C 2.09375 -1.890625 2.09375 -1.9375 2 -2.390625 C 1.984375 -2.453125 1.921875 -2.734375 1.90625 -2.90625 Z M 1.90625 -2.90625 "
           style="stroke:none;" />
      </symbol>
    </g>
    <g
       id="g5141">
      <symbol
         id="symbol8567"
         overflow="visible">
        <path
           id="path9815"
           d=""
           style="stroke:none;" />
      </symbol>
      <symbol
         id="symbol7149"
         overflow="visible">
        <path
           id="path271"
           d="M 6.4375 -6.921875 C 6.4375 -6.953125 6.40625 -7.03125 6.3125 -7.03125 C 6.265625 -7.03125 6.265625 -7.015625 6.140625 -6.875 L 5.65625 -6.3125 C 5.40625 -6.78125 4.890625 -7.03125 4.234375 -7.03125 C 2.96875 -7.03125 1.78125 -5.875 1.78125 -4.671875 C 1.78125 -3.875 2.296875 -3.40625 2.8125 -3.265625 L 3.875 -2.984375 C 4.25 -2.890625 4.796875 -2.734375 4.796875 -1.921875 C 4.796875 -1.03125 3.984375 -0.09375 3 -0.09375 C 2.359375 -0.09375 1.25 -0.3125 1.25 -1.546875 C 1.25 -1.78125 1.3125 -2.03125 1.3125 -2.078125 C 1.328125 -2.125 1.328125 -2.140625 1.328125 -2.15625 C 1.328125 -2.25 1.265625 -2.265625 1.21875 -2.265625 C 1.171875 -2.265625 1.140625 -2.25 1.109375 -2.21875 C 1.078125 -2.1875 0.515625 0.09375 0.515625 0.125 C 0.515625 0.171875 0.5625 0.21875 0.625 0.21875 C 0.671875 0.21875 0.6875 0.203125 0.8125 0.0625 L 1.296875 -0.5 C 1.71875 0.078125 2.40625 0.21875 2.984375 0.21875 C 4.34375 0.21875 5.515625 -1.109375 5.515625 -2.34375 C 5.515625 -3.03125 5.171875 -3.375 5.03125 -3.515625 C 4.796875 -3.734375 4.640625 -3.78125 3.765625 -4 C 3.53125 -4.0625 3.1875 -4.171875 3.09375 -4.1875 C 2.828125 -4.28125 2.484375 -4.5625 2.484375 -5.09375 C 2.484375 -5.90625 3.28125 -6.75 4.234375 -6.75 C 5.046875 -6.75 5.65625 -6.3125 5.65625 -5.203125 C 5.65625 -4.890625 5.625 -4.703125 5.625 -4.640625 C 5.625 -4.640625 5.625 -4.546875 5.734375 -4.546875 C 5.84375 -4.546875 5.859375 -4.578125 5.890625 -4.75 Z M 6.4375 -6.921875 "
           style="stroke:none;" />
      </symbol>
    </g>
    <g
       id="g5301">
      <symbol
         id="symbol9598"
         overflow="visible">
        <path
           id="path5572"
           d=""
           style="stroke:none;" />
      </symbol>
      <symbol
         id="symbol2929"
         overflow="visible">
        <path
           id="path7161"
           d="M 6.4375 -6.921875 C 6.4375 -6.953125 6.40625 -7.03125 6.3125 -7.03125 C 6.265625 -7.03125 6.265625 -7.015625 6.140625 -6.875 L 5.65625 -6.3125 C 5.40625 -6.78125 4.890625 -7.03125 4.234375 -7.03125 C 2.96875 -7.03125 1.78125 -5.875 1.78125 -4.671875 C 1.78125 -3.875 2.296875 -3.40625 2.8125 -3.265625 L 3.875 -2.984375 C 4.25 -2.890625 4.796875 -2.734375 4.796875 -1.921875 C 4.796875 -1.03125 3.984375 -0.09375 3 -0.09375 C 2.359375 -0.09375 1.25 -0.3125 1.25 -1.546875 C 1.25 -1.78125 1.3125 -2.03125 1.3125 -2.078125 C 1.328125 -2.125 1.328125 -2.140625 1.328125 -2.15625 C 1.328125 -2.25 1.265625 -2.265625 1.21875 -2.265625 C 1.171875 -2.265625 1.140625 -2.25 1.109375 -2.21875 C 1.078125 -2.1875 0.515625 0.09375 0.515625 0.125 C 0.515625 0.171875 0.5625 0.21875 0.625 0.21875 C 0.671875 0.21875 0.6875 0.203125 0.8125 0.0625 L 1.296875 -0.5 C 1.71875 0.078125 2.40625 0.21875 2.984375 0.21875 C 4.34375 0.21875 5.515625 -1.109375 5.515625 -2.34375 C 5.515625 -3.03125 5.171875 -3.375 5.03125 -3.515625 C 4.796875 -3.734375 4.640625 -3.78125 3.765625 -4 C 3.53125 -4.0625 3.1875 -4.171875 3.09375 -4.1875 C 2.828125 -4.28125 2.484375 -4.5625 2.484375 -5.09375 C 2.484375 -5.90625 3.28125 -6.75 4.234375 -6.75 C 5.046875 -6.75 5.65625 -6.3125 5.65625 -5.203125 C 5.65625 -4.890625 5.625 -4.703125 5.625 -4.640625 C 5.625 -4.640625 5.625 -4.546875 5.734375 -4.546875 C 5.84375 -4.546875 5.859375 -4.578125 5.890625 -4.75 Z M 6.4375 -6.921875 "
           style="stroke:none;" />
      </symbol>
      <symbol
         id="symbol7704"
         overflow="visible">
        <path
           id="path4616"
           d=""
           style="stroke:none;" />
      </symbol>
      <symbol
         id="symbol3636"
         overflow="visible">
        <path
           id="path610"
           d="M 5.1875 -1.578125 C 5.296875 -1.578125 5.46875 -1.578125 5.46875 -1.734375 C 5.46875 -1.921875 5.296875 -1.921875 5.1875 -1.921875 L 1.03125 -1.921875 C 0.921875 -1.921875 0.75 -1.921875 0.75 -1.75 C 0.75 -1.578125 0.90625 -1.578125 1.03125 -1.578125 Z M 5.1875 -1.578125 "
           style="stroke:none;" />
      </symbol>
      <symbol
         id="symbol5769"
         overflow="visible">
        <path
           id="path636"
           d=""
           style="stroke:none;" />
      </symbol>
      <symbol
         id="symbol1384"
         overflow="visible">
        <path
           id="path6268"
           d="M 2.328125 -4.4375 C 2.328125 -4.625 2.328125 -4.625 2.125 -4.625 C 1.671875 -4.1875 1.046875 -4.1875 0.765625 -4.1875 L 0.765625 -3.9375 C 0.921875 -3.9375 1.390625 -3.9375 1.765625 -4.125 L 1.765625 -0.578125 C 1.765625 -0.34375 1.765625 -0.25 1.078125 -0.25 L 0.8125 -0.25 L 0.8125 0 C 0.9375 0 1.796875 -0.03125 2.046875 -0.03125 C 2.265625 -0.03125 3.140625 0 3.296875 0 L 3.296875 -0.25 L 3.03125 -0.25 C 2.328125 -0.25 2.328125 -0.34375 2.328125 -0.578125 Z M 2.328125 -4.4375 "
           style="stroke:none;" />
      </symbol>
    </g>
    <g
       id="g4788">
      <symbol
         id="symbol8365"
         overflow="visible">
        <path
           id="path5628"
           d=""
           style="stroke:none;" />
      </symbol>
      <symbol
         id="symbol3885"
         overflow="visible">
        <path
           id="path1250"
           d="M 4.921875 -2.953125 C 4.6875 -2.109375 4.34375 -0.875 4.34375 -0.109375 C 4.34375 0.15625 4.5 0.28125 4.75 0.28125 C 5.140625 0.28125 5.890625 -0.15625 5.890625 -0.34375 C 5.890625 -0.40625 5.84375 -0.421875 5.796875 -0.421875 C 5.671875 -0.421875 5.5 -0.328125 5.390625 -0.265625 C 5.25 -0.296875 5.1875 -0.390625 5.1875 -0.53125 C 5.1875 -1.75 6.3125 -5.234375 6.609375 -5.96875 C 6.734375 -6.25 6.859375 -6.65625 6.859375 -6.734375 C 6.859375 -6.8125 6.796875 -6.8125 6.765625 -6.8125 C 6.546875 -6.8125 6.09375 -6.546875 6.015625 -6.34375 C 5.890625 -6 5.875 -5.953125 5.75 -5.578125 C 5.421875 -4.640625 4.4375 -2.984375 3.453125 -1.828125 C 3.140625 -1.484375 2.15625 -0.328125 1.453125 -0.328125 C 0.984375 -0.328125 0.671875 -0.734375 0.671875 -1.390625 C 0.671875 -2.09375 1.0625 -2.984375 1.671875 -4.359375 C 2.03125 -5.171875 2.328125 -5.875 2.328125 -6.328125 C 2.328125 -6.796875 2 -6.8125 1.828125 -6.8125 C 1.0625 -6.8125 0.09375 -6.1875 0.09375 -5.984375 C 0.09375 -5.921875 0.171875 -5.921875 0.203125 -5.921875 C 0.328125 -5.921875 0.515625 -6 0.671875 -6.109375 C 0.734375 -6.15625 0.890625 -6.265625 1.171875 -6.265625 C 1.390625 -6.265625 1.46875 -6.125 1.46875 -5.90625 C 1.46875 -5.46875 1.109375 -4.640625 0.703125 -3.6875 C 0.046875 -2.1875 -0.171875 -1.5625 -0.171875 -0.984375 C -0.171875 -0.3125 0.09375 0.21875 0.796875 0.21875 C 1.421875 0.21875 2.328125 -0.1875 3.34375 -1.140625 C 4.03125 -1.78125 4.46875 -2.375 4.90625 -2.953125 Z M 4.921875 -2.953125 "
           style="stroke:none;" />
      </symbol>
    </g>
    <g
       id="g505">
      <symbol
         id="symbol3638"
         overflow="visible">
        <path
           id="path4453"
           d=""
           style="stroke:none;" />
      </symbol>
      <symbol
         id="symbol7432"
         overflow="visible">
        <path
           id="path6815"
           d="M 4.921875 -2.953125 C 4.6875 -2.109375 4.34375 -0.875 4.34375 -0.109375 C 4.34375 0.15625 4.5 0.28125 4.75 0.28125 C 5.140625 0.28125 5.890625 -0.15625 5.890625 -0.34375 C 5.890625 -0.40625 5.84375 -0.421875 5.796875 -0.421875 C 5.671875 -0.421875 5.5 -0.328125 5.390625 -0.265625 C 5.25 -0.296875 5.1875 -0.390625 5.1875 -0.53125 C 5.1875 -1.75 6.3125 -5.234375 6.609375 -5.96875 C 6.734375 -6.25 6.859375 -6.65625 6.859375 -6.734375 C 6.859375 -6.8125 6.796875 -6.8125 6.765625 -6.8125 C 6.546875 -6.8125 6.09375 -6.546875 6.015625 -6.34375 C 5.890625 -6 5.875 -5.953125 5.75 -5.578125 C 5.421875 -4.640625 4.4375 -2.984375 3.453125 -1.828125 C 3.140625 -1.484375 2.15625 -0.328125 1.453125 -0.328125 C 0.984375 -0.328125 0.671875 -0.734375 0.671875 -1.390625 C 0.671875 -2.09375 1.0625 -2.984375 1.671875 -4.359375 C 2.03125 -5.171875 2.328125 -5.875 2.328125 -6.328125 C 2.328125 -6.796875 2 -6.8125 1.828125 -6.8125 C 1.0625 -6.8125 0.09375 -6.1875 0.09375 -5.984375 C 0.09375 -5.921875 0.171875 -5.921875 0.203125 -5.921875 C 0.328125 -5.921875 0.515625 -6 0.671875 -6.109375 C 0.734375 -6.15625 0.890625 -6.265625 1.171875 -6.265625 C 1.390625 -6.265625 1.46875 -6.125 1.46875 -5.90625 C 1.46875 -5.46875 1.109375 -4.640625 0.703125 -3.6875 C 0.046875 -2.1875 -0.171875 -1.5625 -0.171875 -0.984375 C -0.171875 -0.3125 0.09375 0.21875 0.796875 0.21875 C 1.421875 0.21875 2.328125 -0.1875 3.34375 -1.140625 C 4.03125 -1.78125 4.46875 -2.375 4.90625 -2.953125 Z M 4.921875 -2.953125 "
           style="stroke:none;" />
      </symbol>
      <symbol
         id="symbol7566"
         overflow="visible">
        <path
           id="path1393"
           d=""
           style="stroke:none;" />
      </symbol>
      <symbol
         id="symbol9845"
         overflow="visible">
        <path
           id="path833"
           d="M 3.390625 -4.21875 C 3.4375 -4.421875 3.453125 -4.4375 3.609375 -4.453125 C 3.640625 -4.453125 3.875 -4.453125 4.015625 -4.453125 C 4.453125 -4.453125 4.625 -4.453125 4.796875 -4.40625 C 5.109375 -4.3125 5.125 -4.109375 5.125 -3.859375 C 5.125 -3.75 5.125 -3.65625 5.078125 -3.296875 L 5.0625 -3.21875 C 5.0625 -3.140625 5.109375 -3.109375 5.1875 -3.109375 C 5.296875 -3.109375 5.296875 -3.171875 5.3125 -3.28125 L 5.5 -4.609375 C 5.5 -4.703125 5.421875 -4.703125 5.296875 -4.703125 L 1.015625 -4.703125 C 0.84375 -4.703125 0.828125 -4.703125 0.78125 -4.5625 L 0.328125 -3.328125 C 0.328125 -3.296875 0.296875 -3.234375 0.296875 -3.203125 C 0.296875 -3.171875 0.3125 -3.109375 0.421875 -3.109375 C 0.515625 -3.109375 0.515625 -3.140625 0.5625 -3.28125 C 0.96875 -4.390625 1.203125 -4.453125 2.265625 -4.453125 L 2.546875 -4.453125 C 2.765625 -4.453125 2.765625 -4.453125 2.765625 -4.390625 C 2.765625 -4.390625 2.765625 -4.34375 2.734375 -4.25 L 1.8125 -0.578125 C 1.75 -0.328125 1.734375 -0.25 1 -0.25 C 0.75 -0.25 0.6875 -0.25 0.6875 -0.09375 C 0.6875 -0.078125 0.703125 0 0.8125 0 C 1 0 1.21875 -0.015625 1.40625 -0.015625 C 1.609375 -0.015625 1.8125 -0.03125 2 -0.03125 C 2.203125 -0.03125 2.4375 -0.03125 2.640625 -0.015625 C 2.828125 -0.015625 3.03125 0 3.21875 0 C 3.28125 0 3.375 0 3.375 -0.15625 C 3.375 -0.25 3.3125 -0.25 3.09375 -0.25 C 2.96875 -0.25 2.828125 -0.265625 2.6875 -0.265625 C 2.453125 -0.28125 2.4375 -0.3125 2.4375 -0.390625 C 2.4375 -0.453125 2.4375 -0.453125 2.46875 -0.5625 Z M 3.390625 -4.21875 "
           style="stroke:none;" />
      </symbol>
    </g>
  </defs>
  <sodipodi:namedview
     showguides="false"
     inkscape:window-maximized="1"
     inkscape:window-y="-8"
     inkscape:window-x="-8"
     inkscape:window-height="1017"
     inkscape:window-width="1920"
     showgrid="false"
     inkscape:document-rotation="0"
     inkscape:current-layer="layer1"
     inkscape:document-units="mm"
     inkscape:cy="263.96317"
     inkscape:cx="383.11072"
     inkscape:zoom="1.4"
     inkscape:pageshadow="2"
     inkscape:pageopacity="0.0"
     borderopacity="1.0"
     bordercolor="#666666"
     pagecolor="#ffffff"
     id="base">
    <inkscape:grid
       id="grid6038"
       type="xygrid" />
  </sodipodi:namedview>
  <metadata
     id="metadata5">
    <rdf:RDF>
      <cc:Work
         rdf:about="">
        <dc:format>image/svg+xml</dc:format>
        <dc:type
           rdf:resource="http://purl.org/dc/dcmitype/StillImage" />
        <dc:title />
      </cc:Work>
    </rdf:RDF>
  </metadata>
  <g
     id="layer1"
     inkscape:groupmode="layer"
     inkscape:label="Layer 1">
    <text
       style="line-height:1.25;font-family:sans-serif;font-size:2.11666667px;white-space:pre;shape-inside:url(#rect835);"
       id="text833"
       xml:space="preserve" />
    <text
       id="text841"
       y="63.718819"
       x="64.052788"
       style="font-size:11.0253px;line-height:1.25;font-family:sans-serif;fill:#b40000;fill-opacity:1;stroke-width:1.37815"
       xml:space="preserve"><tspan
         style="fill:#b40000;fill-opacity:1;stroke-width:1.37815"
         y="63.718819"
         x="64.052788"
         id="tspan839"
         sodipodi:role="line">e</tspan></text>
    <g
       style="fill:#009100;fill-opacity:1"
       inkscape:label=""
       transform="translate(-34.003981,2.6443095)"
       id="g876">
      <g
         style="fill:#009100;fill-opacity:1"
         id="g7669">
        <g
           transform="translate(0,4.3467262)"
           id="g5655"
           style="fill:#009100;fill-opacity:1">
          <use
             style="fill:#009100;fill-opacity:1"
             height="100%"
             width="100%"
             id="use1051"
             y="81.962997"
             x="91.925003"
             xlink:href="#symbol6021" />
        </g>
        <g
           transform="translate(0,4.3467262)"
           id="g7903"
           style="fill:#009100;fill-opacity:1">
          <use
             style="fill:#009100;fill-opacity:1"
             height="100%"
             width="100%"
             id="use8680"
             y="83.457001"
             x="96.753998"
             xlink:href="#symbol2810" />
          <use
             style="fill:#009100;fill-opacity:1"
             height="100%"
             width="100%"
             id="use4147"
             y="83.457001"
             x="100.86087"
             xlink:href="#symbol2175" />
          <use
             style="fill:#009100;fill-opacity:1"
             height="100%"
             width="100%"
             id="use7258"
             y="83.457001"
             x="104.421"
             xlink:href="#symbol973" />
        </g>
      </g>
    </g>
    <g
       style="fill:#b40000;fill-opacity:1"
       inkscape:label=""
       transform="matrix(1.5039683,0,0,1.5039683,0.39056239,-59.373924)"
       id="g940">
      <g
         style="fill:#b40000;fill-opacity:1"
         id="g9276">
        <g
           id="g5729"
           style="fill:#b40000;fill-opacity:1">
          <use
             style="fill:#b40000;fill-opacity:1"
             height="100%"
             width="100%"
             id="use2813"
             y="81.962997"
             x="91.925003"
             xlink:href="#symbol1247" />
        </g>
      </g>
    </g>
    <g
       style="fill:#009100;fill-opacity:1"
       inkscape:label=""
       transform="matrix(1.3347789,0,0,1.3347789,14.433059,-19.019895)"
       id="g1000">
      <g
         style="fill:#009100;fill-opacity:1"
         id="g7657">
        <g
           id="g5646"
           style="fill:#009100;fill-opacity:1">
          <use
             style="fill:#009100;fill-opacity:1"
             height="100%"
             width="100%"
             id="use4096"
             y="81.962997"
             x="91.925003"
             xlink:href="#symbol8596" />
        </g>
      </g>
    </g>
    <text
       style="line-height:1.25;font-family:sans-serif;font-size:2.11666667px;white-space:pre;shape-inside:url(#rect1015);"
       id="text1013"
       xml:space="preserve" />
    <path
       style="fill:none;stroke:#000000;stroke-width:0.264583px;stroke-linecap:butt;stroke-linejoin:miter;stroke-opacity:1;marker-end:url(#marker1352)"
       d="m 71.728197,64.800011 c 1.589462,0.668984 2.993326,1.772909 4.018289,3.159769 1.024963,1.386861 1.668243,3.052896 1.841266,4.768703 0.173024,1.715807 -0.12468,3.476732 -0.852118,5.040306 -0.727439,1.563574 -1.882639,2.925556 -3.306537,3.89841 -0.864813,0.590869 -1.826474,1.039642 -2.83483,1.322916"
       id="path1025-3"
       inkscape:path-effect="#path-effect1072"
       inkscape:original-d="m 71.728197,64.800011 c 0.56723,5.622661 1.1342,11.245056 1.7009,16.867188 0.5667,5.622131 -1.88962,0.88221 -2.83483,1.322916" />
    <path
       inkscape:original-d="M 61.45381,83.158197 C 60.88658,77.535536 60.319618,71.91314 59.752917,66.291008 c -0.5667,-5.622131 1.889617,-0.88221 2.834823,-1.322916"
       inkscape:path-effect="#path-effect1070"
       id="path1025-0-0"
       d="m 61.45381,83.158197 c -1.589461,-0.668986 -2.993323,-1.772912 -4.018284,-3.159773 -1.024961,-1.386861 -1.66824,-3.052896 -1.841263,-4.768702 -0.173022,-1.715807 0.124681,-3.47673 0.852119,-5.040304 0.727439,-1.563574 1.882638,-2.925556 3.306535,-3.89841 0.864811,-0.590868 1.826469,-1.039641 2.834823,-1.322916"
       style="fill:none;stroke:#000000;stroke-width:0.265;stroke-linecap:butt;stroke-linejoin:miter;stroke-miterlimit:4;stroke-dasharray:none;stroke-opacity:1;marker-end:url(#Arrow1Lend)" />
    <path
       sodipodi:nodetypes="cc"
       id="path1492"
       d="M 88.635417,56.885417 H 130.96875"
       style="fill:none;stroke:#000000;stroke-width:0.47;stroke-linecap:butt;stroke-linejoin:miter;stroke-miterlimit:4;stroke-dasharray:none;stroke-opacity:1;marker-end:url(#Arrow2Lend)" />
    <ellipse
       ry="5.8339214"
       rx="6.1175146"
       cy="60.810287"
       cx="67.464119"
       id="path2009"
       style="fill:none;stroke:#000000;stroke-width:0.227231;stroke-linejoin:bevel;stroke-miterlimit:4;stroke-dasharray:none" />
    <ellipse
       ry="5.3731475"
       rx="12.57832"
       cy="88.082344"
       cx="66.402016"
       id="path2032"
       style="fill:none;stroke:#000000;stroke-width:0.243777;stroke-linejoin:bevel;stroke-miterlimit:4;stroke-dasharray:none" />
    <path
       inkscape:original-d="m 146.1256,64.889064 c 0.56723,5.622661 1.13419,11.245056 1.70089,16.867189 0.5667,5.622131 -1.88961,0.882208 -2.83482,1.322914"
       inkscape:path-effect="#path-effect2229"
       id="path1025-3-3"
       d="m 146.1256,64.889064 c 1.58946,0.668986 2.99332,1.772912 4.01828,3.159773 1.02496,1.386861 1.66824,3.052896 1.84127,4.768703 0.17302,1.715807 -0.12469,3.47673 -0.85212,5.040304 -0.72744,1.563573 -1.88264,2.925555 -3.30654,3.898409 -0.86481,0.590867 -1.82647,1.03964 -2.83482,1.322914"
       style="fill:none;stroke:#000000;stroke-width:0.264583px;stroke-linecap:butt;stroke-linejoin:miter;stroke-opacity:1;marker-end:url(#marker1352-2)" />
    <path
       style="fill:none;stroke:#000000;stroke-width:0.264999;stroke-linecap:butt;stroke-linejoin:miter;stroke-miterlimit:4;stroke-dasharray:none;stroke-opacity:1;marker-end:url(#Arrow1Lend-7)"
       d="m 135.85121,83.247249 c -1.58946,-0.668984 -2.99333,-1.772909 -4.01829,-3.159769 -1.02496,-1.386861 -1.66824,-3.052896 -1.84127,-4.768703 -0.17302,-1.715807 0.12468,-3.476732 0.85212,-5.040306 0.72744,-1.563574 1.88264,-2.925556 3.30654,-3.89841 0.86481,-0.590869 1.82647,-1.039642 2.83483,-1.322916"
       id="path1025-0-0-5"
       inkscape:path-effect="#path-effect2227"
       inkscape:original-d="m 135.85121,83.247249 c -0.56723,-5.62266 -1.1342,-11.245056 -1.7009,-16.867188 -0.5667,-5.622131 1.88962,-0.88221 2.83483,-1.322916" />
    <ellipse
       style="fill:none;stroke:#000000;stroke-width:0.227231;stroke-linejoin:bevel;stroke-miterlimit:4;stroke-dasharray:none"
       id="path2009-29"
       cx="141.8615"
       cy="60.899342"
       rx="6.1175146"
       ry="5.8339214" />
    <g
       inkscape:label=""
       transform="matrix(0.69641323,0,0,0.69641323,39.996643,-1.7016874)"
       id="g2461">
      <g
         id="g4589">
        <g
           id="g7962"
           style="fill:#000000;fill-opacity:1" />
        <g
           id="g7091"
           style="fill:#000000;fill-opacity:1">
          <use
             height="100%"
             width="100%"
             id="use3152"
             y="78.348"
             x="99.814003"
             xlink:href="#symbol3799" />
        </g>
      </g>
    </g>
    <g
       inkscape:label=""
       transform="matrix(0.69641323,0,0,0.69641323,32.595621,26.938137)"
       id="g2735">
      <g
         transform="translate(2.9377182,2.6774885)"
         id="g3385">
        <g
           transform="translate(7.9375,-2.7403274)"
           id="g2025"
           style="fill:#000000;fill-opacity:1">
          <use
             height="100%"
             width="100%"
             id="use4254"
             y="81.962997"
             x="91.925003"
             xlink:href="#symbol2023" />
        </g>
        <g
           transform="translate(7.9375,-2.7403274)"
           id="g9945"
           style="fill:#000000;fill-opacity:1">
          <use
             height="100%"
             width="100%"
             id="use5089"
             y="78.348"
             x="99.950996"
             xlink:href="#symbol6541" />
        </g>
      </g>
    </g>
    <g
       inkscape:label=""
       transform="matrix(0.69641323,0,0,0.69641323,40.067203,40.382006)"
       id="g2891">
      <g
         id="g8152">
        <g
           id="g2557"
           style="fill:#000000;fill-opacity:1">
          <use
             height="100%"
             width="100%"
             id="use1830"
             y="81.962997"
             x="91.925003"
             xlink:href="#symbol8366" />
        </g>
      </g>
    </g>
    <path
       style="fill:none;stroke:#000000;stroke-width:0.47;stroke-linecap:butt;stroke-linejoin:miter;stroke-miterlimit:4;stroke-dasharray:none;stroke-opacity:1;marker-end:url(#Arrow2Lend-1)"
       d="M 124.35417,62.441667 H 82.285417"
       id="path1492-6"
       sodipodi:nodetypes="cc" />
    <path
       style="fill:none;stroke:#000000;stroke-width:0.47;stroke-linecap:butt;stroke-linejoin:miter;stroke-miterlimit:4;stroke-dasharray:none;stroke-opacity:1;marker-end:url(#Arrow2Lend-6)"
       d="M 88.75722,85.553078 128.85208,85.725"
       id="path1492-8"
       sodipodi:nodetypes="cc" />
    <path
       sodipodi:nodetypes="cc"
       id="path1492-6-1"
       d="m 125.55739,90.696646 -42.213639,0.05544"
       style="fill:none;stroke:#000000;stroke-width:0.47;stroke-linecap:butt;stroke-linejoin:miter;stroke-miterlimit:4;stroke-dasharray:none;stroke-opacity:1;marker-end:url(#Arrow2Lend-1-7)" />
    <ellipse
       ry="5.8339214"
       rx="6.1175146"
       cy="87.276421"
       cx="140.28561"
       id="path2009-29-9"
       style="fill:none;stroke:#000000;stroke-width:0.227231;stroke-linejoin:bevel;stroke-miterlimit:4;stroke-dasharray:none" />
    <g
       style="fill:#0000b4;fill-opacity:1"
       inkscape:label=""
       transform="matrix(0.57375637,0,0,0.57375638,25.079123,29.81023)"
       id="g5368">
      <g
         style="fill:#0000b4;fill-opacity:1"
         id="g7889">
        <g
           id="g1311"
           style="fill:#0000b4;fill-opacity:1">
          <use
             style="fill:#0000b4;fill-opacity:1"
             height="100%"
             width="100%"
             id="use2799"
             y="81.962997"
             x="91.925003"
             xlink:href="#symbol7819" />
        </g>
        <g
           id="g6841"
           style="fill:#0000b4;fill-opacity:1">
          <use
             style="fill:#0000b4;fill-opacity:1"
             height="100%"
             width="100%"
             id="use314"
             y="78.348"
             x="100.45"
             xlink:href="#symbol2932" />
        </g>
      </g>
    </g>
    <g
       style="fill:#0000b4;fill-opacity:1"
       inkscape:label=""
       transform="matrix(0.57375637,0,0,0.57375637,-7.7386705,29.877907)"
       id="g5570">
      <g
         style="fill:#0000b4;fill-opacity:1"
         id="g5962">
        <g
           id="g216"
           style="fill:#0000b4;fill-opacity:1">
          <use
             style="fill:#0000b4;fill-opacity:1"
             height="100%"
             width="100%"
             id="use7829"
             y="81.962997"
             x="91.925003"
             xlink:href="#symbol7043" />
        </g>
        <g
           id="g931"
           style="fill:#0000b4;fill-opacity:1">
          <use
             style="fill:#0000b4;fill-opacity:1"
             height="100%"
             width="100%"
             id="use6387"
             y="78.348"
             x="100.45"
             xlink:href="#symbol919" />
        </g>
        <g
           id="g7883"
           style="fill:#0000b4;fill-opacity:1">
          <use
             style="fill:#0000b4;fill-opacity:1"
             height="100%"
             width="100%"
             id="use4586"
             y="78.348"
             x="106.228"
             xlink:href="#symbol4371" />
        </g>
      </g>
    </g>
    <g
       style="fill:#0000b4;fill-opacity:1"
       inkscape:label=""
       transform="matrix(0.57375638,0,0,0.57375638,36.971956,35.240474)"
       id="g5787">
      <g
         style="fill:#0000b4;fill-opacity:1"
         transform="translate(110.78062,-10.039493)"
         id="g6624">
        <g
           transform="translate(-0.86848743,0.3385575)"
           id="g4600"
           style="fill:#0000b4;fill-opacity:1">
          <use
             style="fill:#0000b4;fill-opacity:1"
             height="100%"
             width="100%"
             id="use132"
             y="81.962997"
             x="91.925003"
             xlink:href="#symbol7149" />
        </g>
      </g>
    </g>
    <g
       style="fill:#0000b4;fill-opacity:1"
       inkscape:label=""
       transform="matrix(0.57375637,0,0,0.57375637,67.158728,29.600248)"
       id="g6013">
      <g
         style="fill:#0000b4;fill-opacity:1"
         id="g2670">
        <g
           id="g7210"
           style="fill:#0000b4;fill-opacity:1">
          <use
             style="fill:#0000b4;fill-opacity:1"
             height="100%"
             width="100%"
             id="use2018"
             y="81.962997"
             x="91.925003"
             xlink:href="#symbol2929" />
        </g>
        <g
           id="g5302"
           style="fill:#0000b4;fill-opacity:1">
          <use
             style="fill:#0000b4;fill-opacity:1"
             height="100%"
             width="100%"
             id="use4598"
             y="78.348"
             x="98.609001"
             xlink:href="#symbol3636" />
        </g>
        <g
           id="g9354"
           style="fill:#0000b4;fill-opacity:1">
          <use
             style="fill:#0000b4;fill-opacity:1"
             height="100%"
             width="100%"
             id="use6467"
             y="78.348"
             x="104.835"
             xlink:href="#symbol1384" />
        </g>
      </g>
    </g>
    <text
       transform="matrix(2.0146827,0,0,2.0146827,-61.605857,-5.742)"
       style="font-size:2.11667px;line-height:1.25;font-family:sans-serif;white-space:pre;shape-inside:url(#rect6354);"
       id="text6352"
       xml:space="preserve"><tspan
         x="78.4375"
         y="22.843211"><tspan>Error Space</tspan></tspan></text>
    <text
       id="text6710"
       y="109.90678"
       x="93.986885"
       style="font-size:3.97051px;line-height:1.25;font-family:sans-serif;stroke-width:0.496313"
       xml:space="preserve"><tspan
         style="stroke-width:0.496313"
         y="109.90678"
         x="93.986885"
         id="tspan6708"
         sodipodi:role="line">Voltage Space</tspan></text>
    <text
       id="text6714"
       y="75.748955"
       x="14.148204"
       style="font-size:4.01371px;line-height:1.25;font-family:sans-serif;stroke-width:0.501713"
       xml:space="preserve"><tspan
         style="stroke-width:0.501713"
         y="75.748955"
         x="14.148204"
         id="tspan6712"
         sodipodi:role="line">Original Space </tspan></text>
    <text
       id="text6718"
       y="75.838737"
       x="164.88922"
       style="font-size:4.09771px;line-height:1.25;font-family:sans-serif;stroke-width:0.512212"
       xml:space="preserve"><tspan
         style="stroke-width:0.512212"
         y="75.838737"
         x="164.88922"
         id="tspan6716"
         sodipodi:role="line">Transformed Space</tspan></text>
    <path
       id="path6720"
       d="m 41.933976,74.378459 0.930701,0.542753 122.097073,0.0081"
       style="fill:none;stroke:#000000;stroke-width:0.365;stroke-linecap:butt;stroke-linejoin:miter;stroke-miterlimit:4;stroke-dasharray:1.095, 0.36499999999999999;stroke-dashoffset:0.3285;stroke-opacity:0.01" />
    <path
       style="fill:none;stroke:#000000;stroke-width:0.265702;stroke-linecap:butt;stroke-linejoin:miter;stroke-miterlimit:4;stroke-dasharray:0.797103, 0.26570199999999999;stroke-dashoffset:0.23913;stroke-opacity:0.01"
       d="m 108.56442,42.129842 -0.55657,0.480941 -0.008,63.093917"
       id="path6720-8" />
    <g
       inkscape:label=""
       transform="matrix(0.69875462,0,0,0.69875462,40.418394,11.323994)"
       id="g7022">
      <g
         id="g4083">
        <g
           id="g4283"
           style="fill:#000000;fill-opacity:1">
          <use
             height="100%"
             width="100%"
             id="use6721"
             y="81.962997"
             x="91.925003"
             xlink:href="#symbol3885" />
        </g>
      </g>
    </g>
    <g
       inkscape:label=""
       transform="matrix(0.6877076,0,0,0.6877076,41.643692,-0.93187237)"
       id="g7291">
      <g
         id="g3231">
        <g
           id="g3515"
           style="fill:#000000;fill-opacity:1">
          <use
             height="100%"
             width="100%"
             id="use8428"
             y="81.962997"
             x="91.925003"
             xlink:href="#symbol7432" />
        </g>
        <g
           id="g8720"
           style="fill:#000000;fill-opacity:1" />
      </g>
    </g>
  </g>
</svg>
