<?xml version="1.0" encoding="UTF-8" standalone="no"?>
<svg
   xmlns:dc="http://purl.org/dc/elements/1.1/"
   xmlns:cc="http://creativecommons.org/ns#"
   xmlns:rdf="http://www.w3.org/1999/02/22-rdf-syntax-ns#"
   xmlns:svg="http://www.w3.org/2000/svg"
   xmlns="http://www.w3.org/2000/svg"
   xmlns:xlink="http://www.w3.org/1999/xlink"
   xmlns:sodipodi="http://sodipodi.sourceforge.net/DTD/sodipodi-0.dtd"
   xmlns:inkscape="http://www.inkscape.org/namespaces/inkscape"
   width="210mm"
   height="297mm"
   viewBox="0 0 210 297"
   version="1.1"
   id="svg6847"
   inkscape:version="1.0 (4035a4fb49, 2020-05-01)"
   sodipodi:docname="pcf_e_v_subspace_graphic.svg.2020_08_25_16_03_26.0.svg">
  <defs
     id="defs6841">
    <rect
       id="rect7978"
       height="27.78125"
       width="44.979167"
       y="124.54315"
       x="90.903274" />
    <marker
       inkscape:stockid="Arrow1Lend"
       orient="auto"
       refY="0.0"
       refX="0.0"
       id="marker7912"
       style="overflow:visible;"
       inkscape:isstock="true">
      <path
         id="path7910"
         d="M 0.0,0.0 L 5.0,-5.0 L -12.5,0.0 L 5.0,5.0 L 0.0,0.0 z "
         style="fill-rule:evenodd;stroke:#000000;stroke-width:1pt;stroke-opacity:1;fill:#000000;fill-opacity:1"
         transform="scale(0.8) rotate(180) translate(12.5,0)" />
    </marker>
    <inkscape:path-effect
       only_selected="false"
       apply_with_weight="true"
       apply_no_weight="true"
       helper_size="0"
       steps="2"
       weight="33.333333"
       lpeversion="1"
       is_visible="true"
       id="path-effect7860"
       effect="bspline" />
    <inkscape:path-effect
       only_selected="false"
       apply_with_weight="true"
       apply_no_weight="true"
       helper_size="0"
       steps="2"
       weight="33.333333"
       lpeversion="1"
       is_visible="true"
       id="path-effect7850"
       effect="bspline" />
    <marker
       inkscape:collect="always"
       inkscape:isstock="true"
       style="overflow:visible;"
       id="Arrow1Lend"
       refX="0.0"
       refY="0.0"
       orient="auto"
       inkscape:stockid="Arrow1Lend">
      <path
         transform="scale(0.8) rotate(180) translate(12.5,0)"
         style="fill-rule:evenodd;stroke:#000000;stroke-width:1pt;stroke-opacity:1;fill:#000000;fill-opacity:1"
         d="M 0.0,0.0 L 5.0,-5.0 L -12.5,0.0 L 5.0,5.0 L 0.0,0.0 z "
         id="path7449" />
    </marker>
    <marker
       inkscape:isstock="true"
       style="overflow:visible"
       id="marker7724"
       refX="0.0"
       refY="0.0"
       orient="auto"
       inkscape:stockid="Arrow1Lstart">
      <path
         transform="scale(0.8) translate(12.5,0)"
         style="fill-rule:evenodd;stroke:#000000;stroke-width:1pt;stroke-opacity:1;fill:#000000;fill-opacity:1"
         d="M 0.0,0.0 L 5.0,-5.0 L -12.5,0.0 L 5.0,5.0 L 0.0,0.0 z "
         id="path7722" />
    </marker>
    <marker
       inkscape:isstock="true"
       style="overflow:visible"
       id="Arrow1Lstart"
       refX="0.0"
       refY="0.0"
       orient="auto"
       inkscape:stockid="Arrow1Lstart">
      <path
         transform="scale(0.8) translate(12.5,0)"
         style="fill-rule:evenodd;stroke:#000000;stroke-width:1pt;stroke-opacity:1;fill:#000000;fill-opacity:1"
         d="M 0.0,0.0 L 5.0,-5.0 L -12.5,0.0 L 5.0,5.0 L 0.0,0.0 z "
         id="path7446" />
    </marker>
    <inkscape:path-effect
       lpeversion="1"
       is_visible="true"
       id="path-effect7444"
       effect="spiro" />
    <inkscape:path-effect
       lpeversion="1"
       is_visible="true"
       id="path-effect7422"
       effect="spiro" />
    <inkscape:path-effect
       lpeversion="1"
       is_visible="true"
       id="path-effect7414"
       effect="spiro" />
    <g
       id="g3513">
      <symbol
         id="symbol2305"
         overflow="visible">
        <path
           id="path2419"
           d=""
           style="stroke:none;" />
      </symbol>
      <symbol
         id="symbol9672"
         overflow="visible">
        <path
           id="path4591"
           d="M 1.578125 -0.78125 C 1.484375 -0.390625 1.46875 -0.3125 0.671875 -0.3125 C 0.515625 -0.3125 0.40625 -0.3125 0.40625 -0.125 C 0.40625 0 0.484375 0 0.671875 0 L 3.984375 0 C 6.046875 0 8.015625 -2.109375 8.015625 -4.28125 C 8.015625 -5.6875 7.171875 -6.8125 5.671875 -6.8125 L 2.328125 -6.8125 C 2.140625 -6.8125 2.03125 -6.8125 2.03125 -6.625 C 2.03125 -6.5 2.109375 -6.5 2.3125 -6.5 C 2.4375 -6.5 2.625 -6.484375 2.734375 -6.484375 C 2.90625 -6.453125 2.953125 -6.4375 2.953125 -6.3125 C 2.953125 -6.28125 2.953125 -6.25 2.921875 -6.125 Z M 3.734375 -6.125 C 3.828125 -6.46875 3.84375 -6.5 4.28125 -6.5 L 5.34375 -6.5 C 6.3125 -6.5 7.140625 -5.96875 7.140625 -4.65625 C 7.140625 -4.171875 6.953125 -2.53125 6.09375 -1.4375 C 5.8125 -1.0625 5.03125 -0.3125 3.796875 -0.3125 L 2.671875 -0.3125 C 2.53125 -0.3125 2.515625 -0.3125 2.453125 -0.3125 C 2.359375 -0.328125 2.328125 -0.34375 2.328125 -0.421875 C 2.328125 -0.453125 2.328125 -0.46875 2.375 -0.640625 Z M 3.734375 -6.125 "
           style="stroke:none;" />
      </symbol>
      <symbol
         id="symbol5760"
         overflow="visible">
        <path
           id="path3954"
           d=""
           style="stroke:none;" />
      </symbol>
      <symbol
         id="symbol3361"
         overflow="visible">
        <path
           id="path4464"
           d="M 3.390625 -4.21875 C 3.4375 -4.421875 3.453125 -4.4375 3.609375 -4.453125 C 3.640625 -4.453125 3.875 -4.453125 4.015625 -4.453125 C 4.453125 -4.453125 4.625 -4.453125 4.796875 -4.40625 C 5.109375 -4.3125 5.125 -4.109375 5.125 -3.859375 C 5.125 -3.75 5.125 -3.65625 5.078125 -3.296875 L 5.0625 -3.21875 C 5.0625 -3.140625 5.109375 -3.109375 5.1875 -3.109375 C 5.296875 -3.109375 5.296875 -3.171875 5.3125 -3.28125 L 5.5 -4.609375 C 5.5 -4.703125 5.421875 -4.703125 5.296875 -4.703125 L 1.015625 -4.703125 C 0.84375 -4.703125 0.828125 -4.703125 0.78125 -4.5625 L 0.328125 -3.328125 C 0.328125 -3.296875 0.296875 -3.234375 0.296875 -3.203125 C 0.296875 -3.171875 0.3125 -3.109375 0.421875 -3.109375 C 0.515625 -3.109375 0.515625 -3.140625 0.5625 -3.28125 C 0.96875 -4.390625 1.203125 -4.453125 2.265625 -4.453125 L 2.546875 -4.453125 C 2.765625 -4.453125 2.765625 -4.453125 2.765625 -4.390625 C 2.765625 -4.390625 2.765625 -4.34375 2.734375 -4.25 L 1.8125 -0.578125 C 1.75 -0.328125 1.734375 -0.25 1 -0.25 C 0.75 -0.25 0.6875 -0.25 0.6875 -0.09375 C 0.6875 -0.078125 0.703125 0 0.8125 0 C 1 0 1.21875 -0.015625 1.40625 -0.015625 C 1.609375 -0.015625 1.8125 -0.03125 2 -0.03125 C 2.203125 -0.03125 2.4375 -0.03125 2.640625 -0.015625 C 2.828125 -0.015625 3.03125 0 3.21875 0 C 3.28125 0 3.375 0 3.375 -0.15625 C 3.375 -0.25 3.3125 -0.25 3.09375 -0.25 C 2.96875 -0.25 2.828125 -0.265625 2.6875 -0.265625 C 2.453125 -0.28125 2.4375 -0.3125 2.4375 -0.390625 C 2.4375 -0.453125 2.4375 -0.453125 2.46875 -0.5625 Z M 3.390625 -4.21875 "
           style="stroke:none;" />
      </symbol>
    </g>
    <g
       id="g4541">
      <symbol
         id="symbol1278"
         overflow="visible">
        <path
           id="path447"
           d=""
           style="stroke:none;" />
      </symbol>
      <symbol
         id="symbol5723"
         overflow="visible">
        <path
           id="path2377"
           d="M 1.578125 -0.78125 C 1.484375 -0.390625 1.46875 -0.3125 0.671875 -0.3125 C 0.515625 -0.3125 0.40625 -0.3125 0.40625 -0.125 C 0.40625 0 0.484375 0 0.671875 0 L 3.984375 0 C 6.046875 0 8.015625 -2.109375 8.015625 -4.28125 C 8.015625 -5.6875 7.171875 -6.8125 5.671875 -6.8125 L 2.328125 -6.8125 C 2.140625 -6.8125 2.03125 -6.8125 2.03125 -6.625 C 2.03125 -6.5 2.109375 -6.5 2.3125 -6.5 C 2.4375 -6.5 2.625 -6.484375 2.734375 -6.484375 C 2.90625 -6.453125 2.953125 -6.4375 2.953125 -6.3125 C 2.953125 -6.28125 2.953125 -6.25 2.921875 -6.125 Z M 3.734375 -6.125 C 3.828125 -6.46875 3.84375 -6.5 4.28125 -6.5 L 5.34375 -6.5 C 6.3125 -6.5 7.140625 -5.96875 7.140625 -4.65625 C 7.140625 -4.171875 6.953125 -2.53125 6.09375 -1.4375 C 5.8125 -1.0625 5.03125 -0.3125 3.796875 -0.3125 L 2.671875 -0.3125 C 2.53125 -0.3125 2.515625 -0.3125 2.453125 -0.3125 C 2.359375 -0.328125 2.328125 -0.34375 2.328125 -0.421875 C 2.328125 -0.453125 2.328125 -0.46875 2.375 -0.640625 Z M 3.734375 -6.125 "
           style="stroke:none;" />
      </symbol>
      <symbol
         id="symbol2810"
         overflow="visible">
        <path
           id="path4597"
           d=""
           style="stroke:none;" />
      </symbol>
      <symbol
         id="symbol1363"
         overflow="visible">
        <path
           id="path6912"
           d="M 3.390625 -4.21875 C 3.4375 -4.421875 3.453125 -4.4375 3.609375 -4.453125 C 3.640625 -4.453125 3.875 -4.453125 4.015625 -4.453125 C 4.453125 -4.453125 4.625 -4.453125 4.796875 -4.40625 C 5.109375 -4.3125 5.125 -4.109375 5.125 -3.859375 C 5.125 -3.75 5.125 -3.65625 5.078125 -3.296875 L 5.0625 -3.21875 C 5.0625 -3.140625 5.109375 -3.109375 5.1875 -3.109375 C 5.296875 -3.109375 5.296875 -3.171875 5.3125 -3.28125 L 5.5 -4.609375 C 5.5 -4.703125 5.421875 -4.703125 5.296875 -4.703125 L 1.015625 -4.703125 C 0.84375 -4.703125 0.828125 -4.703125 0.78125 -4.5625 L 0.328125 -3.328125 C 0.328125 -3.296875 0.296875 -3.234375 0.296875 -3.203125 C 0.296875 -3.171875 0.3125 -3.109375 0.421875 -3.109375 C 0.515625 -3.109375 0.515625 -3.140625 0.5625 -3.28125 C 0.96875 -4.390625 1.203125 -4.453125 2.265625 -4.453125 L 2.546875 -4.453125 C 2.765625 -4.453125 2.765625 -4.453125 2.765625 -4.390625 C 2.765625 -4.390625 2.765625 -4.34375 2.734375 -4.25 L 1.8125 -0.578125 C 1.75 -0.328125 1.734375 -0.25 1 -0.25 C 0.75 -0.25 0.6875 -0.25 0.6875 -0.09375 C 0.6875 -0.078125 0.703125 0 0.8125 0 C 1 0 1.21875 -0.015625 1.40625 -0.015625 C 1.609375 -0.015625 1.8125 -0.03125 2 -0.03125 C 2.203125 -0.03125 2.4375 -0.03125 2.640625 -0.015625 C 2.828125 -0.015625 3.03125 0 3.21875 0 C 3.28125 0 3.375 0 3.375 -0.15625 C 3.375 -0.25 3.3125 -0.25 3.09375 -0.25 C 2.96875 -0.25 2.828125 -0.265625 2.6875 -0.265625 C 2.453125 -0.28125 2.4375 -0.3125 2.4375 -0.390625 C 2.4375 -0.453125 2.4375 -0.453125 2.46875 -0.5625 Z M 3.390625 -4.21875 "
           style="stroke:none;" />
      </symbol>
      <symbol
         id="symbol2211"
         overflow="visible">
        <path
           id="path4392"
           d=""
           style="stroke:none;" />
      </symbol>
      <symbol
         id="symbol1376"
         overflow="visible">
        <path
           id="path9872"
           d="M 1.90625 -2.90625 C 2.015625 -2.90625 2.078125 -2.890625 2.296875 -2.84375 C 2.515625 -2.78125 2.6875 -2.734375 2.8125 -2.734375 C 3.09375 -2.734375 3.109375 -2.9375 3.109375 -3 C 3.109375 -3.0625 3.09375 -3.28125 2.8125 -3.28125 C 2.6875 -3.28125 2.515625 -3.234375 2.296875 -3.171875 C 2.078125 -3.109375 2.015625 -3.109375 1.90625 -3.09375 C 1.921875 -3.34375 1.96875 -3.625 2 -3.84375 C 2.03125 -3.984375 2.09375 -4.34375 2.09375 -4.578125 C 2.09375 -4.796875 2 -4.90625 1.828125 -4.90625 C 1.671875 -4.90625 1.546875 -4.828125 1.546875 -4.578125 C 1.546875 -4.359375 1.609375 -4 1.65625 -3.765625 C 1.671875 -3.6875 1.734375 -3.359375 1.734375 -3.09375 C 1.640625 -3.109375 1.5625 -3.109375 1.359375 -3.171875 C 1.140625 -3.234375 0.96875 -3.28125 0.84375 -3.28125 C 0.5625 -3.28125 0.53125 -3.0625 0.53125 -3 C 0.53125 -2.953125 0.5625 -2.734375 0.84375 -2.734375 C 0.96875 -2.734375 1.140625 -2.78125 1.359375 -2.84375 C 1.5625 -2.890625 1.640625 -2.90625 1.734375 -2.90625 C 1.734375 -2.734375 1.671875 -2.515625 1.640625 -2.375 C 1.546875 -1.9375 1.546875 -1.890625 1.546875 -1.53125 C 1.546875 -0.1875 1.6875 1.25 1.703125 1.390625 C 1.71875 1.453125 1.734375 1.484375 1.828125 1.484375 C 1.9375 1.484375 1.9375 1.453125 1.953125 1.359375 C 1.953125 1.34375 2 0.734375 2.03125 0.3125 C 2.0625 -0.296875 2.09375 -0.90625 2.09375 -1.53125 C 2.09375 -1.890625 2.09375 -1.9375 2 -2.390625 C 1.984375 -2.453125 1.921875 -2.734375 1.90625 -2.90625 Z M 1.90625 -2.90625 "
           style="stroke:none;" />
      </symbol>
    </g>
    <g
       id="g2838">
      <symbol
         id="symbol3464"
         overflow="visible">
        <path
           id="path5965"
           d=""
           style="stroke:none;" />
      </symbol>
      <symbol
         id="symbol6949"
         overflow="visible">
        <path
           id="path8747"
           d="M 1.859375 -2.296875 C 2.15625 -2.296875 2.890625 -2.328125 3.390625 -2.53125 C 4.09375 -2.828125 4.140625 -3.421875 4.140625 -3.5625 C 4.140625 -4 3.765625 -4.40625 3.078125 -4.40625 C 1.96875 -4.40625 0.453125 -3.4375 0.453125 -1.6875 C 0.453125 -0.671875 1.046875 0.109375 2.03125 0.109375 C 3.453125 0.109375 4.28125 -0.953125 4.28125 -1.0625 C 4.28125 -1.125 4.234375 -1.203125 4.171875 -1.203125 C 4.109375 -1.203125 4.09375 -1.171875 4.03125 -1.09375 C 3.25 -0.109375 2.15625 -0.109375 2.046875 -0.109375 C 1.265625 -0.109375 1.171875 -0.953125 1.171875 -1.265625 C 1.171875 -1.390625 1.1875 -1.6875 1.328125 -2.296875 Z M 1.390625 -2.515625 C 1.78125 -4.03125 2.8125 -4.1875 3.078125 -4.1875 C 3.53125 -4.1875 3.8125 -3.890625 3.8125 -3.5625 C 3.8125 -2.515625 2.21875 -2.515625 1.796875 -2.515625 Z M 1.390625 -2.515625 "
           style="stroke:none;" />
      </symbol>
      <symbol
         id="symbol4874"
         overflow="visible">
        <path
           id="path6654"
           d="M 3.328125 -3.015625 C 3.390625 -3.265625 3.625 -4.1875 4.3125 -4.1875 C 4.359375 -4.1875 4.609375 -4.1875 4.8125 -4.0625 C 4.53125 -4 4.34375 -3.765625 4.34375 -3.515625 C 4.34375 -3.359375 4.453125 -3.171875 4.71875 -3.171875 C 4.9375 -3.171875 5.25 -3.34375 5.25 -3.75 C 5.25 -4.265625 4.671875 -4.40625 4.328125 -4.40625 C 3.75 -4.40625 3.40625 -3.875 3.28125 -3.65625 C 3.03125 -4.3125 2.5 -4.40625 2.203125 -4.40625 C 1.171875 -4.40625 0.59375 -3.125 0.59375 -2.875 C 0.59375 -2.765625 0.703125 -2.765625 0.71875 -2.765625 C 0.796875 -2.765625 0.828125 -2.796875 0.84375 -2.875 C 1.1875 -3.9375 1.84375 -4.1875 2.1875 -4.1875 C 2.375 -4.1875 2.71875 -4.09375 2.71875 -3.515625 C 2.71875 -3.203125 2.546875 -2.546875 2.1875 -1.140625 C 2.03125 -0.53125 1.671875 -0.109375 1.234375 -0.109375 C 1.171875 -0.109375 0.953125 -0.109375 0.734375 -0.234375 C 0.984375 -0.296875 1.203125 -0.5 1.203125 -0.78125 C 1.203125 -1.046875 0.984375 -1.125 0.84375 -1.125 C 0.53125 -1.125 0.296875 -0.875 0.296875 -0.546875 C 0.296875 -0.09375 0.78125 0.109375 1.21875 0.109375 C 1.890625 0.109375 2.25 -0.59375 2.265625 -0.640625 C 2.390625 -0.28125 2.75 0.109375 3.34375 0.109375 C 4.375 0.109375 4.9375 -1.171875 4.9375 -1.421875 C 4.9375 -1.53125 4.859375 -1.53125 4.828125 -1.53125 C 4.734375 -1.53125 4.71875 -1.484375 4.6875 -1.421875 C 4.359375 -0.34375 3.6875 -0.109375 3.375 -0.109375 C 2.984375 -0.109375 2.828125 -0.421875 2.828125 -0.765625 C 2.828125 -0.984375 2.875 -1.203125 2.984375 -1.640625 Z M 3.328125 -3.015625 "
           style="stroke:none;" />
      </symbol>
      <symbol
         id="symbol3004"
         overflow="visible">
        <path
           id="path6811"
           d=""
           style="stroke:none;" />
      </symbol>
      <symbol
         id="symbol9824"
         overflow="visible">
        <path
           id="path3568"
           d="M 6.84375 -3.265625 C 7 -3.265625 7.1875 -3.265625 7.1875 -3.453125 C 7.1875 -3.65625 7 -3.65625 6.859375 -3.65625 L 0.890625 -3.65625 C 0.75 -3.65625 0.5625 -3.65625 0.5625 -3.453125 C 0.5625 -3.265625 0.75 -3.265625 0.890625 -3.265625 Z M 6.859375 -1.328125 C 7 -1.328125 7.1875 -1.328125 7.1875 -1.53125 C 7.1875 -1.71875 7 -1.71875 6.84375 -1.71875 L 0.890625 -1.71875 C 0.75 -1.71875 0.5625 -1.71875 0.5625 -1.53125 C 0.5625 -1.328125 0.75 -1.328125 0.890625 -1.328125 Z M 6.859375 -1.328125 "
           style="stroke:none;" />
      </symbol>
      <symbol
         id="symbol4868"
         overflow="visible">
        <path
           id="path9106"
           d="M 2.5 -6.921875 L 1.15625 -5.5625 L 1.328125 -5.390625 L 2.5 -6.40625 L 3.640625 -5.390625 L 3.8125 -5.5625 Z M 2.5 -6.921875 "
           style="stroke:none;" />
      </symbol>
      <symbol
         id="symbol7111"
         overflow="visible">
        <path
           id="path1465"
           d=""
           style="stroke:none;" />
      </symbol>
      <symbol
         id="symbol5119"
         overflow="visible">
        <path
           id="path8261"
           d="M 6.5625 -2.296875 C 6.734375 -2.296875 6.921875 -2.296875 6.921875 -2.5 C 6.921875 -2.6875 6.734375 -2.6875 6.5625 -2.6875 L 1.171875 -2.6875 C 1 -2.6875 0.828125 -2.6875 0.828125 -2.5 C 0.828125 -2.296875 1 -2.296875 1.171875 -2.296875 Z M 6.5625 -2.296875 "
           style="stroke:none;" />
      </symbol>
    </g>
    <g
       id="g1315">
      <symbol
         id="symbol4099"
         overflow="visible">
        <path
           id="path9328"
           d=""
           style="stroke:none;" />
      </symbol>
      <symbol
         id="symbol7512"
         overflow="visible">
        <path
           id="path4952"
           d="M 4.671875 -3.703125 C 4.671875 -4.25 4.40625 -4.40625 4.234375 -4.40625 C 3.984375 -4.40625 3.734375 -4.140625 3.734375 -3.921875 C 3.734375 -3.796875 3.78125 -3.734375 3.890625 -3.625 C 4.109375 -3.421875 4.234375 -3.171875 4.234375 -2.8125 C 4.234375 -2.390625 3.625 -0.109375 2.46875 -0.109375 C 1.953125 -0.109375 1.71875 -0.453125 1.71875 -0.984375 C 1.71875 -1.53125 2 -2.265625 2.296875 -3.09375 C 2.375 -3.265625 2.421875 -3.40625 2.421875 -3.59375 C 2.421875 -4.03125 2.109375 -4.40625 1.609375 -4.40625 C 0.671875 -4.40625 0.296875 -2.953125 0.296875 -2.875 C 0.296875 -2.765625 0.390625 -2.765625 0.40625 -2.765625 C 0.515625 -2.765625 0.515625 -2.796875 0.5625 -2.953125 C 0.859375 -3.953125 1.28125 -4.1875 1.578125 -4.1875 C 1.65625 -4.1875 1.828125 -4.1875 1.828125 -3.875 C 1.828125 -3.625 1.71875 -3.34375 1.65625 -3.171875 C 1.21875 -2.015625 1.09375 -1.5625 1.09375 -1.125 C 1.09375 -0.046875 1.96875 0.109375 2.421875 0.109375 C 4.09375 0.109375 4.671875 -3.1875 4.671875 -3.703125 Z M 4.671875 -3.703125 "
           style="stroke:none;" />
      </symbol>
      <symbol
         id="symbol1630"
         overflow="visible">
        <path
           id="path6745"
           d="M 1.578125 -0.78125 C 1.484375 -0.390625 1.46875 -0.3125 0.671875 -0.3125 C 0.515625 -0.3125 0.40625 -0.3125 0.40625 -0.125 C 0.40625 0 0.484375 0 0.671875 0 L 3.984375 0 C 6.046875 0 8.015625 -2.109375 8.015625 -4.28125 C 8.015625 -5.6875 7.171875 -6.8125 5.671875 -6.8125 L 2.328125 -6.8125 C 2.140625 -6.8125 2.03125 -6.8125 2.03125 -6.625 C 2.03125 -6.5 2.109375 -6.5 2.3125 -6.5 C 2.4375 -6.5 2.625 -6.484375 2.734375 -6.484375 C 2.90625 -6.453125 2.953125 -6.4375 2.953125 -6.3125 C 2.953125 -6.28125 2.953125 -6.25 2.921875 -6.125 Z M 3.734375 -6.125 C 3.828125 -6.46875 3.84375 -6.5 4.28125 -6.5 L 5.34375 -6.5 C 6.3125 -6.5 7.140625 -5.96875 7.140625 -4.65625 C 7.140625 -4.171875 6.953125 -2.53125 6.09375 -1.4375 C 5.8125 -1.0625 5.03125 -0.3125 3.796875 -0.3125 L 2.671875 -0.3125 C 2.53125 -0.3125 2.515625 -0.3125 2.453125 -0.3125 C 2.359375 -0.328125 2.328125 -0.34375 2.328125 -0.421875 C 2.328125 -0.453125 2.328125 -0.46875 2.375 -0.640625 Z M 3.734375 -6.125 "
           style="stroke:none;" />
      </symbol>
      <symbol
         id="symbol7224"
         overflow="visible">
        <path
           id="path2623"
           d="M 1.859375 -2.296875 C 2.15625 -2.296875 2.890625 -2.328125 3.390625 -2.53125 C 4.09375 -2.828125 4.140625 -3.421875 4.140625 -3.5625 C 4.140625 -4 3.765625 -4.40625 3.078125 -4.40625 C 1.96875 -4.40625 0.453125 -3.4375 0.453125 -1.6875 C 0.453125 -0.671875 1.046875 0.109375 2.03125 0.109375 C 3.453125 0.109375 4.28125 -0.953125 4.28125 -1.0625 C 4.28125 -1.125 4.234375 -1.203125 4.171875 -1.203125 C 4.109375 -1.203125 4.09375 -1.171875 4.03125 -1.09375 C 3.25 -0.109375 2.15625 -0.109375 2.046875 -0.109375 C 1.265625 -0.109375 1.171875 -0.953125 1.171875 -1.265625 C 1.171875 -1.390625 1.1875 -1.6875 1.328125 -2.296875 Z M 1.390625 -2.515625 C 1.78125 -4.03125 2.8125 -4.1875 3.078125 -4.1875 C 3.53125 -4.1875 3.8125 -3.890625 3.8125 -3.5625 C 3.8125 -2.515625 2.21875 -2.515625 1.796875 -2.515625 Z M 1.390625 -2.515625 "
           style="stroke:none;" />
      </symbol>
      <symbol
         id="symbol6438"
         overflow="visible">
        <path
           id="path9968"
           d=""
           style="stroke:none;" />
      </symbol>
      <symbol
         id="symbol4999"
         overflow="visible">
        <path
           id="path717"
           d="M 6.84375 -3.265625 C 7 -3.265625 7.1875 -3.265625 7.1875 -3.453125 C 7.1875 -3.65625 7 -3.65625 6.859375 -3.65625 L 0.890625 -3.65625 C 0.75 -3.65625 0.5625 -3.65625 0.5625 -3.453125 C 0.5625 -3.265625 0.75 -3.265625 0.890625 -3.265625 Z M 6.859375 -1.328125 C 7 -1.328125 7.1875 -1.328125 7.1875 -1.53125 C 7.1875 -1.71875 7 -1.71875 6.84375 -1.71875 L 0.890625 -1.71875 C 0.75 -1.71875 0.5625 -1.71875 0.5625 -1.53125 C 0.5625 -1.328125 0.75 -1.328125 0.890625 -1.328125 Z M 6.859375 -1.328125 "
           style="stroke:none;" />
      </symbol>
      <symbol
         id="symbol6738"
         overflow="visible">
        <path
           id="path3086"
           d=""
           style="stroke:none;" />
      </symbol>
      <symbol
         id="symbol8890"
         overflow="visible">
        <path
           id="path1528"
           d="M 3.390625 -4.21875 C 3.4375 -4.421875 3.453125 -4.4375 3.609375 -4.453125 C 3.640625 -4.453125 3.875 -4.453125 4.015625 -4.453125 C 4.453125 -4.453125 4.625 -4.453125 4.796875 -4.40625 C 5.109375 -4.3125 5.125 -4.109375 5.125 -3.859375 C 5.125 -3.75 5.125 -3.65625 5.078125 -3.296875 L 5.0625 -3.21875 C 5.0625 -3.140625 5.109375 -3.109375 5.1875 -3.109375 C 5.296875 -3.109375 5.296875 -3.171875 5.3125 -3.28125 L 5.5 -4.609375 C 5.5 -4.703125 5.421875 -4.703125 5.296875 -4.703125 L 1.015625 -4.703125 C 0.84375 -4.703125 0.828125 -4.703125 0.78125 -4.5625 L 0.328125 -3.328125 C 0.328125 -3.296875 0.296875 -3.234375 0.296875 -3.203125 C 0.296875 -3.171875 0.3125 -3.109375 0.421875 -3.109375 C 0.515625 -3.109375 0.515625 -3.140625 0.5625 -3.28125 C 0.96875 -4.390625 1.203125 -4.453125 2.265625 -4.453125 L 2.546875 -4.453125 C 2.765625 -4.453125 2.765625 -4.453125 2.765625 -4.390625 C 2.765625 -4.390625 2.765625 -4.34375 2.734375 -4.25 L 1.8125 -0.578125 C 1.75 -0.328125 1.734375 -0.25 1 -0.25 C 0.75 -0.25 0.6875 -0.25 0.6875 -0.09375 C 0.6875 -0.078125 0.703125 0 0.8125 0 C 1 0 1.21875 -0.015625 1.40625 -0.015625 C 1.609375 -0.015625 1.8125 -0.03125 2 -0.03125 C 2.203125 -0.03125 2.4375 -0.03125 2.640625 -0.015625 C 2.828125 -0.015625 3.03125 0 3.21875 0 C 3.28125 0 3.375 0 3.375 -0.15625 C 3.375 -0.25 3.3125 -0.25 3.09375 -0.25 C 2.96875 -0.25 2.828125 -0.265625 2.6875 -0.265625 C 2.453125 -0.28125 2.4375 -0.3125 2.4375 -0.390625 C 2.4375 -0.453125 2.4375 -0.453125 2.46875 -0.5625 Z M 3.390625 -4.21875 "
           style="stroke:none;" />
      </symbol>
    </g>
    <g
       id="g3133">
      <symbol
         id="symbol9177"
         overflow="visible">
        <path
           id="path4335"
           d=""
           style="stroke:none;" />
      </symbol>
      <symbol
         id="symbol6387"
         overflow="visible">
        <path
           id="path9023"
           d="M 1.859375 -2.296875 C 2.15625 -2.296875 2.890625 -2.328125 3.390625 -2.53125 C 4.09375 -2.828125 4.140625 -3.421875 4.140625 -3.5625 C 4.140625 -4 3.765625 -4.40625 3.078125 -4.40625 C 1.96875 -4.40625 0.453125 -3.4375 0.453125 -1.6875 C 0.453125 -0.671875 1.046875 0.109375 2.03125 0.109375 C 3.453125 0.109375 4.28125 -0.953125 4.28125 -1.0625 C 4.28125 -1.125 4.234375 -1.203125 4.171875 -1.203125 C 4.109375 -1.203125 4.09375 -1.171875 4.03125 -1.09375 C 3.25 -0.109375 2.15625 -0.109375 2.046875 -0.109375 C 1.265625 -0.109375 1.171875 -0.953125 1.171875 -1.265625 C 1.171875 -1.390625 1.1875 -1.6875 1.328125 -2.296875 Z M 1.390625 -2.515625 C 1.78125 -4.03125 2.8125 -4.1875 3.078125 -4.1875 C 3.53125 -4.1875 3.8125 -3.890625 3.8125 -3.5625 C 3.8125 -2.515625 2.21875 -2.515625 1.796875 -2.515625 Z M 1.390625 -2.515625 "
           style="stroke:none;" />
      </symbol>
      <symbol
         id="symbol395"
         overflow="visible">
        <path
           id="path4216"
           d="M 1.578125 -0.78125 C 1.484375 -0.390625 1.46875 -0.3125 0.671875 -0.3125 C 0.515625 -0.3125 0.40625 -0.3125 0.40625 -0.125 C 0.40625 0 0.484375 0 0.671875 0 L 3.984375 0 C 6.046875 0 8.015625 -2.109375 8.015625 -4.28125 C 8.015625 -5.6875 7.171875 -6.8125 5.671875 -6.8125 L 2.328125 -6.8125 C 2.140625 -6.8125 2.03125 -6.8125 2.03125 -6.625 C 2.03125 -6.5 2.109375 -6.5 2.3125 -6.5 C 2.4375 -6.5 2.625 -6.484375 2.734375 -6.484375 C 2.90625 -6.453125 2.953125 -6.4375 2.953125 -6.3125 C 2.953125 -6.28125 2.953125 -6.25 2.921875 -6.125 Z M 3.734375 -6.125 C 3.828125 -6.46875 3.84375 -6.5 4.28125 -6.5 L 5.34375 -6.5 C 6.3125 -6.5 7.140625 -5.96875 7.140625 -4.65625 C 7.140625 -4.171875 6.953125 -2.53125 6.09375 -1.4375 C 5.8125 -1.0625 5.03125 -0.3125 3.796875 -0.3125 L 2.671875 -0.3125 C 2.53125 -0.3125 2.515625 -0.3125 2.453125 -0.3125 C 2.359375 -0.328125 2.328125 -0.34375 2.328125 -0.421875 C 2.328125 -0.453125 2.328125 -0.46875 2.375 -0.640625 Z M 3.734375 -6.125 "
           style="stroke:none;" />
      </symbol>
      <symbol
         id="symbol3887"
         overflow="visible">
        <path
           id="path9618"
           d="M 4.671875 -3.703125 C 4.671875 -4.25 4.40625 -4.40625 4.234375 -4.40625 C 3.984375 -4.40625 3.734375 -4.140625 3.734375 -3.921875 C 3.734375 -3.796875 3.78125 -3.734375 3.890625 -3.625 C 4.109375 -3.421875 4.234375 -3.171875 4.234375 -2.8125 C 4.234375 -2.390625 3.625 -0.109375 2.46875 -0.109375 C 1.953125 -0.109375 1.71875 -0.453125 1.71875 -0.984375 C 1.71875 -1.53125 2 -2.265625 2.296875 -3.09375 C 2.375 -3.265625 2.421875 -3.40625 2.421875 -3.59375 C 2.421875 -4.03125 2.109375 -4.40625 1.609375 -4.40625 C 0.671875 -4.40625 0.296875 -2.953125 0.296875 -2.875 C 0.296875 -2.765625 0.390625 -2.765625 0.40625 -2.765625 C 0.515625 -2.765625 0.515625 -2.796875 0.5625 -2.953125 C 0.859375 -3.953125 1.28125 -4.1875 1.578125 -4.1875 C 1.65625 -4.1875 1.828125 -4.1875 1.828125 -3.875 C 1.828125 -3.625 1.71875 -3.34375 1.65625 -3.171875 C 1.21875 -2.015625 1.09375 -1.5625 1.09375 -1.125 C 1.09375 -0.046875 1.96875 0.109375 2.421875 0.109375 C 4.09375 0.109375 4.671875 -3.1875 4.671875 -3.703125 Z M 4.671875 -3.703125 "
           style="stroke:none;" />
      </symbol>
      <symbol
         id="symbol1182"
         overflow="visible">
        <path
           id="path4242"
           d=""
           style="stroke:none;" />
      </symbol>
      <symbol
         id="symbol6999"
         overflow="visible">
        <path
           id="path171"
           d="M 6.84375 -3.265625 C 7 -3.265625 7.1875 -3.265625 7.1875 -3.453125 C 7.1875 -3.65625 7 -3.65625 6.859375 -3.65625 L 0.890625 -3.65625 C 0.75 -3.65625 0.5625 -3.65625 0.5625 -3.453125 C 0.5625 -3.265625 0.75 -3.265625 0.890625 -3.265625 Z M 6.859375 -1.328125 C 7 -1.328125 7.1875 -1.328125 7.1875 -1.53125 C 7.1875 -1.71875 7 -1.71875 6.84375 -1.71875 L 0.890625 -1.71875 C 0.75 -1.71875 0.5625 -1.71875 0.5625 -1.53125 C 0.5625 -1.328125 0.75 -1.328125 0.890625 -1.328125 Z M 6.859375 -1.328125 "
           style="stroke:none;" />
      </symbol>
      <symbol
         id="symbol7163"
         overflow="visible">
        <path
           id="path9931"
           d=""
           style="stroke:none;" />
      </symbol>
      <symbol
         id="symbol1783"
         overflow="visible">
        <path
           id="path3501"
           d="M 3.390625 -4.21875 C 3.4375 -4.421875 3.453125 -4.4375 3.609375 -4.453125 C 3.640625 -4.453125 3.875 -4.453125 4.015625 -4.453125 C 4.453125 -4.453125 4.625 -4.453125 4.796875 -4.40625 C 5.109375 -4.3125 5.125 -4.109375 5.125 -3.859375 C 5.125 -3.75 5.125 -3.65625 5.078125 -3.296875 L 5.0625 -3.21875 C 5.0625 -3.140625 5.109375 -3.109375 5.1875 -3.109375 C 5.296875 -3.109375 5.296875 -3.171875 5.3125 -3.28125 L 5.5 -4.609375 C 5.5 -4.703125 5.421875 -4.703125 5.296875 -4.703125 L 1.015625 -4.703125 C 0.84375 -4.703125 0.828125 -4.703125 0.78125 -4.5625 L 0.328125 -3.328125 C 0.328125 -3.296875 0.296875 -3.234375 0.296875 -3.203125 C 0.296875 -3.171875 0.3125 -3.109375 0.421875 -3.109375 C 0.515625 -3.109375 0.515625 -3.140625 0.5625 -3.28125 C 0.96875 -4.390625 1.203125 -4.453125 2.265625 -4.453125 L 2.546875 -4.453125 C 2.765625 -4.453125 2.765625 -4.453125 2.765625 -4.390625 C 2.765625 -4.390625 2.765625 -4.34375 2.734375 -4.25 L 1.8125 -0.578125 C 1.75 -0.328125 1.734375 -0.25 1 -0.25 C 0.75 -0.25 0.6875 -0.25 0.6875 -0.09375 C 0.6875 -0.078125 0.703125 0 0.8125 0 C 1 0 1.21875 -0.015625 1.40625 -0.015625 C 1.609375 -0.015625 1.8125 -0.03125 2 -0.03125 C 2.203125 -0.03125 2.4375 -0.03125 2.640625 -0.015625 C 2.828125 -0.015625 3.03125 0 3.21875 0 C 3.28125 0 3.375 0 3.375 -0.15625 C 3.375 -0.25 3.3125 -0.25 3.09375 -0.25 C 2.96875 -0.25 2.828125 -0.265625 2.6875 -0.265625 C 2.453125 -0.28125 2.4375 -0.3125 2.4375 -0.390625 C 2.4375 -0.453125 2.4375 -0.453125 2.46875 -0.5625 Z M 3.390625 -4.21875 "
           style="stroke:none;" />
      </symbol>
      <symbol
         id="symbol883"
         overflow="visible">
        <path
           id="path1386"
           d=""
           style="stroke:none;" />
      </symbol>
      <symbol
         id="symbol4477"
         overflow="visible">
        <path
           id="path389"
           d="M 1.90625 -2.90625 C 2.015625 -2.90625 2.078125 -2.890625 2.296875 -2.84375 C 2.515625 -2.78125 2.6875 -2.734375 2.8125 -2.734375 C 3.09375 -2.734375 3.109375 -2.9375 3.109375 -3 C 3.109375 -3.0625 3.09375 -3.28125 2.8125 -3.28125 C 2.6875 -3.28125 2.515625 -3.234375 2.296875 -3.171875 C 2.078125 -3.109375 2.015625 -3.109375 1.90625 -3.09375 C 1.921875 -3.34375 1.96875 -3.625 2 -3.84375 C 2.03125 -3.984375 2.09375 -4.34375 2.09375 -4.578125 C 2.09375 -4.796875 2 -4.90625 1.828125 -4.90625 C 1.671875 -4.90625 1.546875 -4.828125 1.546875 -4.578125 C 1.546875 -4.359375 1.609375 -4 1.65625 -3.765625 C 1.671875 -3.6875 1.734375 -3.359375 1.734375 -3.09375 C 1.640625 -3.109375 1.5625 -3.109375 1.359375 -3.171875 C 1.140625 -3.234375 0.96875 -3.28125 0.84375 -3.28125 C 0.5625 -3.28125 0.53125 -3.0625 0.53125 -3 C 0.53125 -2.953125 0.5625 -2.734375 0.84375 -2.734375 C 0.96875 -2.734375 1.140625 -2.78125 1.359375 -2.84375 C 1.5625 -2.890625 1.640625 -2.90625 1.734375 -2.90625 C 1.734375 -2.734375 1.671875 -2.515625 1.640625 -2.375 C 1.546875 -1.9375 1.546875 -1.890625 1.546875 -1.53125 C 1.546875 -0.1875 1.6875 1.25 1.703125 1.390625 C 1.71875 1.453125 1.734375 1.484375 1.828125 1.484375 C 1.9375 1.484375 1.9375 1.453125 1.953125 1.359375 C 1.953125 1.34375 2 0.734375 2.03125 0.3125 C 2.0625 -0.296875 2.09375 -0.90625 2.09375 -1.53125 C 2.09375 -1.890625 2.09375 -1.9375 2 -2.390625 C 1.984375 -2.453125 1.921875 -2.734375 1.90625 -2.90625 Z M 1.90625 -2.90625 "
           style="stroke:none;" />
      </symbol>
    </g>
  </defs>
  <sodipodi:namedview
     inkscape:window-maximized="1"
     inkscape:window-y="-8"
     inkscape:window-x="-8"
     inkscape:window-height="1017"
     inkscape:window-width="1920"
     showgrid="false"
     inkscape:document-rotation="0"
     inkscape:current-layer="layer1"
     inkscape:document-units="mm"
     inkscape:cy="443.0579"
     inkscape:cx="373.00767"
     inkscape:zoom="0.98994949"
     inkscape:pageshadow="2"
     inkscape:pageopacity="0.0"
     borderopacity="1.0"
     bordercolor="#666666"
     pagecolor="#ffffff"
     id="base" />
  <metadata
     id="metadata6844">
    <rdf:RDF>
      <cc:Work
         rdf:about="">
        <dc:format>image/svg+xml</dc:format>
        <dc:type
           rdf:resource="http://purl.org/dc/dcmitype/StillImage" />
        <dc:title />
      </cc:Work>
    </rdf:RDF>
  </metadata>
  <g
     id="layer1"
     inkscape:groupmode="layer"
     inkscape:label="Layer 1">
    <path
       inkscape:original-d="m 33.14142,53.721175 c -12.027392,-4.053853 7.127451,36.79437 10.690783,55.191155 3.563329,18.39679 15.680076,13.7201 23.519717,20.57976 7.839641,6.85965 -0.356095,-38.041103 -0.53454,-57.062049 -0.178443,-19.020945 1.603883,-4.365138 2.405427,-6.548104 0.801542,-2.182963 -24.053993,-8.10691 -36.081387,-12.160762 z"
       inkscape:path-effect="#path-effect7414"
       id="path7412"
       d="m 33.14142,53.721175 c -2.659126,4.141152 -3.959525,9.072034 -4.132328,13.99039 -0.172804,4.918356 0.745706,9.831782 2.257775,14.515129 3.024137,9.366694 8.352601,17.789946 12.565336,26.685636 2.441053,5.15457 4.575791,10.58254 8.341831,14.86567 1.88302,2.14157 4.172715,3.96581 6.806241,5.05971 2.633526,1.09391 5.625644,1.42351 8.371645,0.65438 2.538207,-0.71093 4.780204,-2.33827 6.390766,-4.4249 1.610562,-2.08662 2.606014,-4.61422 3.035998,-7.2148 0.859968,-5.20117 -0.497384,-10.52903 -2.464777,-15.41994 -1.967393,-4.890913 -4.549623,-9.527193 -6.313752,-14.495041 -1.764129,-4.967848 -2.677856,-10.452034 -1.182775,-15.507368 0.659782,-2.23093 1.768156,-4.31064 2.405427,-6.548104 1.251786,-4.395031 0.559395,-9.281743 -1.750814,-13.22461 -2.31021,-3.942868 -6.183622,-6.913062 -10.553469,-8.250116 -4.369846,-1.337054 -9.192613,-1.056674 -13.430776,0.652489 -4.238164,1.709163 -7.877162,4.816155 -10.346328,8.661475 z"
       style="fill:#000000;stroke:#000000;stroke-width:1;stroke-linecap:butt;stroke-linejoin:miter;stroke-opacity:1;stroke-miterlimit:4;stroke-dasharray:none;fill-opacity:0.12048193" />
    <path
       inkscape:original-d="m 148.98445,137.22366 c -10.88335,0.7839 -59.989396,8.78243 -89.98449,13.1733 -29.995093,4.39086 -4.423752,2.66625 -6.636023,3.99903 -2.212271,1.33278 23.536029,2.82308 35.303649,4.23427 11.767617,1.41119 45.833064,-8.78196 68.749214,-13.1733 22.91613,-4.39132 29.72965,-4.86133 44.59407,-7.29235 14.86443,-2.43102 -12.91786,-2.19531 -19.37719,-3.29332 -6.45932,-1.09801 -21.7659,1.56848 -32.64923,2.35237 z"
       inkscape:path-effect="#path-effect7422"
       id="path7420"
       d="m 148.98445,137.22366 c -30.44286,1.11262 -61.556699,2.22495 -89.98449,13.1733 -2.436271,0.93828 -4.940582,2.01377 -6.636023,3.99903 -1.452719,1.70105 -2.1781,3.97932 -2.087738,6.21445 0.09036,2.23513 0.973873,4.41295 2.379416,6.15318 1.405543,1.74023 3.31657,3.04777 5.409635,3.8371 2.093064,0.78932 4.362868,1.06993 6.595533,0.93151 4.46533,-0.27684 8.689565,-2.19348 12.426131,-4.65394 3.736566,-2.46047 7.073372,-5.4705 10.580672,-8.24803 9.620251,-7.61854 20.718304,-13.55935 32.694054,-16.23755 11.97575,-2.67821 24.85922,-1.95992 36.05516,3.06425 4.90252,2.2 9.41248,5.17381 14.14023,7.72784 4.72776,2.55404 9.80265,4.72163 15.16316,5.09529 2.68026,0.18683 5.40758,-0.0867 7.94897,-0.95853 2.54139,-0.8718 4.89179,-2.35501 6.65425,-4.38292 1.76245,-2.02792 2.91535,-4.60966 3.09206,-7.2906 0.17672,-2.68094 -0.65606,-5.44351 -2.4046,-7.48343 -1.11589,-1.30184 -2.57301,-2.29068 -4.15304,-2.95665 -1.58003,-0.66597 -3.28166,-1.01662 -4.99119,-1.14895 -3.41906,-0.26465 -6.83779,0.32971 -10.23296,0.81228 -10.80796,1.53619 -21.73993,1.95366 -32.64923,2.35237 z"
       style="fill:#000000;stroke:#000000;stroke-width:1;stroke-linecap:butt;stroke-linejoin:miter;stroke-opacity:1;stroke-miterlimit:4;stroke-dasharray:none;fill-opacity:0.12048193" />
    <path
       inkscape:original-d="m 73.346373,81.346817 c 2.64e-4,-0.25172 2.64e-4,-0.503703 0,-0.755954 15.812584,-0.440717 31.624267,-0.881679 47.436007,-1.322917 3.7801,15.875582 7.55979,31.750264 11.33929,47.625004"
       inkscape:path-effect="#path-effect7850"
       id="path7848"
       d="m 73.346373,81.346817 c 0,-0.25172 0,-0.503703 7.906288,-0.850323 7.906288,-0.346619 23.717969,-0.787583 33.513799,6.929748 9.79583,7.717331 13.57552,23.592018 17.35521,39.466708"
       style="fill:none;stroke:#000000;stroke-width:0.7;stroke-linecap:butt;stroke-linejoin:miter;stroke-miterlimit:4.05;stroke-dasharray:none;stroke-opacity:1;marker-end:url(#Arrow1Lend)" />
    <path
       sodipodi:nodetypes="cccc"
       inkscape:original-d="m 47.643994,163.17309 c 0,0 -6.173286,-2.89381 -9.260417,-4.34116 C 27.863297,149.38261 17.343168,139.93339 6.8225656,130.48372 15.138472,121.16039 23.453782,111.83716 31.768994,102.51348"
       inkscape:path-effect="#path-effect7860"
       id="path7858"
       d="m 47.643994,163.17309 c -3.086806,-1.44705 -6.173231,-2.89393 -12.976956,-8.34221 -6.803725,-5.44829 -17.323856,-14.89751 -18.426351,-24.28412 -1.102496,-9.38662 7.212815,-18.70985 15.528307,-28.03328"
       style="fill:none;stroke:#000000;stroke-width:0.7;stroke-linecap:butt;stroke-linejoin:miter;stroke-miterlimit:4.05;stroke-dasharray:none;stroke-opacity:1;marker-end:url(#marker7912)" />
    <text
       transform="scale(1.0494545,0.95287599)"
       id="text7968"
       y="42.124283"
       x="21.206366"
       style="font-size:4.6852px;line-height:1.25;font-family:sans-serif;stroke-width:0.219619"
       xml:space="preserve"><tspan
         style="font-size:4.6852px;stroke-width:0.219619"
         y="42.124283"
         x="21.206366"
         id="tspan7966"
         sodipodi:role="line">Network State Estimation Error</tspan></text>
    <text
       transform="scale(0.97270435,1.0280616)"
       id="text7972"
       y="150.79329"
       x="110.87046"
       style="font-size:4.72942px;line-height:1.25;font-family:sans-serif;stroke-width:0.221691"
       xml:space="preserve"><tspan
         style="font-size:4.72942px;stroke-width:0.221691"
         y="150.79329"
         x="110.87046"
         id="tspan7970"
         sodipodi:role="line">Membrane Voltage</tspan><tspan
         id="tspan7974"
         style="font-size:4.72942px;stroke-width:0.221691"
         y="156.70506"
         x="110.87046"
         sodipodi:role="line" /></text>
    <text
       style="line-height:1.25;font-family:sans-serif;font-size:2.11666667px;white-space:pre;shape-inside:url(#rect7978);"
       id="text7976"
       xml:space="preserve" />
    <g
       inkscape:label=""
       transform="translate(31.673917,7.6769041)"
       id="g8023">
      <g
         id="g3234">
        <g
           id="g5924"
           style="fill:#000000;fill-opacity:1">
          <use
             height="100%"
             width="100%"
             id="use6527"
             y="81.962997"
             x="91.925003"
             xlink:href="#symbol9672" />
        </g>
        <g
           id="g645"
           style="fill:#000000;fill-opacity:1">
          <use
             height="100%"
             width="100%"
             id="use1162"
             y="78.348"
             x="100.45"
             xlink:href="#symbol3361" />
        </g>
      </g>
    </g>
    <g
       inkscape:label=""
       transform="translate(-71.13534,57.191888)"
       id="g8105">
      <g
         id="g5386">
        <g
           id="g4348"
           style="fill:#000000;fill-opacity:1">
          <use
             height="100%"
             width="100%"
             id="use246"
             y="81.962997"
             x="91.925003"
             xlink:href="#symbol5723" />
        </g>
        <g
           id="g8022"
           style="fill:#000000;fill-opacity:1">
          <use
             height="100%"
             width="100%"
             id="use6149"
             y="78.348"
             x="100.45"
             xlink:href="#symbol1363" />
        </g>
        <g
           id="g8676"
           style="fill:#000000;fill-opacity:1">
          <use
             height="100%"
             width="100%"
             id="use9646"
             y="78.348"
             x="106.228"
             xlink:href="#symbol1376" />
        </g>
      </g>
    </g>
    <g
       inkscape:label=""
       transform="matrix(0.53248942,0,0,0.53248942,-7.3672097,6.0138285)"
       id="g8223">
      <g
         id="g9423">
        <g
           inkscape:label=""
           transform="translate(-7.9198386,62.98383)"
           id="g8560">
          <g
             id="g3865">
            <g
               id="g7058"
               style="fill:#000000;fill-opacity:1">
              <use
                 height="100%"
                 width="100%"
                 id="use328"
                 y="81.962997"
                 x="91.925003"
                 xlink:href="#symbol6387" />
            </g>
            <g
               id="g7496"
               style="fill:#000000;fill-opacity:1">
              <use
                 height="100%"
                 width="100%"
                 id="use8468"
                 y="81.962997"
                 x="99.331001"
                 xlink:href="#symbol6999" />
            </g>
            <g
               id="g2703"
               style="fill:#000000;fill-opacity:1">
              <use
                 height="100%"
                 width="100%"
                 id="use7670"
                 y="81.962997"
                 x="109.848"
                 xlink:href="#symbol395" />
            </g>
            <g
               id="g5624"
               style="fill:#000000;fill-opacity:1">
              <use
                 height="100%"
                 width="100%"
                 id="use9515"
                 y="78.348"
                 x="118.373"
                 xlink:href="#symbol1783" />
            </g>
            <g
               id="g7684"
               style="fill:#000000;fill-opacity:1">
              <use
                 height="100%"
                 width="100%"
                 id="use9347"
                 y="78.348"
                 x="124.151"
                 xlink:href="#symbol4477" />
            </g>
            <g
               id="g7293"
               style="fill:#000000;fill-opacity:1">
              <use
                 height="100%"
                 width="100%"
                 id="use4017"
                 y="81.962997"
                 x="128.302"
                 xlink:href="#symbol3887" />
            </g>
          </g>
        </g>
        <text
           id="text8639"
           y="29.362093"
           x="58.506699"
           style="font-size:14.5751px;line-height:1.25;font-family:sans-serif;stroke-width:0.49688"
           xml:space="preserve"><tspan
             style="font-size:14.5751px;stroke-width:0.49688"
             y="29.362093"
             x="58.506699"
             id="tspan8637"
             sodipodi:role="line">Mapping Between State and Voltage Spaces </tspan></text>
      </g>
    </g>
    <g
       inkscape:label=""
       transform="matrix(0.59634689,0,0,0.59634689,3.6986777,110.73133)"
       id="g8380">
      <g
         id="g2055">
        <g
           id="g9724"
           style="fill:#000000;fill-opacity:1">
          <use
             height="100%"
             width="100%"
             id="use9612"
             y="81.962997"
             x="91.925003"
             xlink:href="#symbol7512" />
        </g>
        <g
           id="g3468"
           style="fill:#000000;fill-opacity:1">
          <use
             height="100%"
             width="100%"
             id="use6220"
             y="81.962997"
             x="99.878998"
             xlink:href="#symbol4999" />
        </g>
        <g
           id="g648"
           style="fill:#000000;fill-opacity:1">
          <use
             height="100%"
             width="100%"
             id="use6070"
             y="81.962997"
             x="110.395"
             xlink:href="#symbol1630" />
        </g>
        <g
           id="g416"
           style="fill:#000000;fill-opacity:1">
          <use
             height="100%"
             width="100%"
             id="use7562"
             y="78.348"
             x="118.92"
             xlink:href="#symbol8890" />
        </g>
        <g
           id="g7455"
           style="fill:#000000;fill-opacity:1">
          <use
             height="100%"
             width="100%"
             id="use7379"
             y="81.962997"
             x="125.196"
             xlink:href="#symbol7224" />
        </g>
      </g>
    </g>
  </g>
</svg>
